<svg preserveAspectRatio="none" overflow="visible" style="display: block;" width="26" height="32" viewBox="0 0 26 32" fill="none" xmlns="http://www.w3.org/2000/svg">
<g id="Layer_1" clip-path="url(#clip0_0_51)">
<path id="Vector" d="M25.783 6.61215C25.5359 6.05709 25.1321 5.66494 25.1321 5.66494L20.3227 0.940956C20.3227 0.940956 20.3227 0.940956 20.3166 0.934923C20.3166 0.934923 19.9068 0.542766 19.2981 0.283339C18.5688 -0.0303866 17.8275 -0.000220712 17.8275 -0.000220712H17.8396H3.30274C1.48261 -0.000220712 0 1.48394 0 3.30596V28.6936C0 30.5156 1.48261 31.9998 3.30274 31.9998H22.6973C24.5174 31.9998 26 30.5156 26 28.6936V7.81878C26 7.81878 26.0542 7.20943 25.7891 6.61215H25.783ZM24.9091 7.79465V28.6936C24.9091 29.9304 23.9328 30.9138 22.6912 30.9138H3.30274C2.06722 30.9138 1.08484 29.9304 1.08484 28.6936V3.30596C1.08484 2.06916 2.0612 1.08575 3.30274 1.08575H17.8456C17.8456 1.08575 17.8516 1.08575 17.8577 1.08575C17.8577 1.08575 18.4363 1.08575 18.8642 1.27278C19.274 1.44774 19.5633 1.7132 19.5633 1.71924L24.3607 6.43115C24.3607 6.43115 24.65 6.73884 24.7886 7.05257C24.9031 7.30596 24.9091 7.77052 24.9091 7.77052C24.9091 7.77655 24.9091 7.78862 24.9091 7.79465Z" fill="#616D80"/>
<path id="Vector_2" d="M6.49096 19.0528C5.74363 18.3047 6.55123 17.279 8.74502 16.187L10.1252 15.4992L10.6616 14.3228C10.9569 13.6772 11.3968 12.6214 11.6439 11.9759L12.0839 10.8054L11.7765 9.94268C11.4029 8.88084 11.2703 7.27602 11.5053 6.70287C11.8248 5.92458 12.8855 6.00302 13.3013 6.84163C13.6268 7.49321 13.5967 8.67572 13.2049 10.1659L12.8855 11.3846L13.1627 11.8612C13.3194 12.1207 13.7654 12.7421 14.1632 13.2368L14.9045 14.1599L15.8266 14.0392C18.7617 13.6531 19.7682 14.3047 19.7682 15.2398C19.7682 16.4163 17.4659 16.5189 15.5253 15.1554C15.0913 14.8477 14.79 14.546 14.79 14.546C14.79 14.546 13.5786 14.7934 12.9819 14.9563C12.3672 15.1252 12.0598 15.2278 11.1558 15.5294C11.1558 15.5294 10.8363 15.9879 10.6314 16.3258C9.86602 17.5686 8.96801 18.6003 8.32916 18.9804C7.61196 19.4027 6.8586 19.4268 6.48493 19.0528H6.49096ZM7.66018 18.6305C8.08206 18.371 8.93185 17.3635 9.51646 16.4344L9.75151 16.0543L8.66667 16.5973C6.99119 17.4419 6.22578 18.2323 6.62355 18.7149C6.84655 18.9864 7.11776 18.9623 7.65415 18.6305H7.66018ZM18.5327 15.5777C18.9425 15.2881 18.8822 14.7089 18.4182 14.4736C18.0566 14.2926 17.7673 14.2564 16.8271 14.2685C16.2485 14.3107 15.3264 14.4253 15.1697 14.4615C15.1697 14.4615 15.6759 14.8115 15.905 14.9442C16.2063 15.1192 16.9356 15.4329 17.472 15.6018C17.9963 15.7647 18.3037 15.7466 18.5327 15.5837V15.5777ZM14.1632 13.7617C13.9161 13.5023 13.4942 12.9532 13.223 12.549C12.8734 12.0905 12.6987 11.7647 12.6987 11.7647C12.6987 11.7647 12.4455 12.5913 12.2346 13.086L11.5777 14.7089L11.3848 15.0769C11.3848 15.0769 12.3973 14.7451 12.9096 14.6124C13.452 14.4676 14.561 14.2504 14.561 14.2504L14.1632 13.7617ZM12.7529 8.10256C12.8192 7.57164 12.8433 7.04072 12.6745 6.76923C12.1984 6.25038 11.6319 6.68477 11.7283 7.91554C11.7585 8.33182 11.8609 9.03771 11.9995 9.47813L12.2527 10.2745L12.4274 9.67723C12.5239 9.3454 12.6745 8.63952 12.7589 8.1086L12.7529 8.10256Z" fill="#616D80"/>
<path id="Vector_3" d="M7.76263 22.5098H8.97404C9.35976 22.5098 9.67316 22.546 9.91423 22.6184C10.1553 22.6908 10.3602 22.8537 10.5229 23.1011C10.6857 23.3484 10.7701 23.6501 10.7701 24C10.7701 24.3258 10.7038 24.6033 10.5712 24.8326C10.4386 25.0618 10.2578 25.2308 10.0287 25.3333C9.80575 25.4359 9.45619 25.4902 8.98609 25.4902H8.56421V27.4027H7.75661V22.5038L7.76263 22.5098ZM8.57024 23.1373V24.8446H8.97404C9.32962 24.8446 9.58275 24.7783 9.71535 24.6456C9.85396 24.5128 9.92629 24.2956 9.92629 23.994C9.92629 23.7707 9.87807 23.5897 9.78767 23.451C9.69726 23.3122 9.59481 23.2217 9.48632 23.1916C9.37784 23.1554 9.20909 23.1433 8.97404 23.1433H8.57024V23.1373ZM11.3908 22.5098H12.4937C13.0241 22.5098 13.452 22.6063 13.7714 22.7934C14.0909 22.9804 14.3319 23.264 14.4947 23.638C14.6574 24.0121 14.7418 24.4223 14.7418 24.8808C14.7418 25.3575 14.6694 25.7858 14.5188 26.1599C14.3741 26.5339 14.1511 26.8356 13.8438 27.0649C13.5424 27.2941 13.1145 27.4087 12.554 27.4087H11.3908V22.5098ZM12.2045 23.1614V26.7632H12.542C13.0121 26.7632 13.3556 26.6003 13.5665 26.2745C13.7775 25.9487 13.886 25.5083 13.886 24.9653C13.886 23.7647 13.44 23.1614 12.542 23.1614H12.2045ZM15.5192 22.5098H18.2374V23.1614H16.3329V24.6275H17.8577V25.279H16.3329V27.4148H15.5253V22.5158L15.5192 22.5098Z" fill="#616D80"/>
</g>
<defs>
<clipPath id="clip0_0_51">
<rect width="26" height="32" fill="white"/>
</clipPath>
</defs>
</svg>
