<svg 
 xmlns="http://www.w3.org/2000/svg"
 xmlns:xlink="http://www.w3.org/1999/xlink"
 width="45px" height="45px">
<path fill-rule="evenodd"  stroke-width="1px" stroke="rgb(215, 219, 227)" fill="rgb(255, 255, 255)"
 d="M22.500,3.500 C32.993,3.500 41.500,12.007 41.500,22.500 C41.500,32.993 32.993,41.500 22.500,41.500 C12.007,41.500 3.500,32.993 3.500,22.500 C3.500,12.007 12.007,3.500 22.500,3.500 Z"/>
<path fill-rule="evenodd"  fill="rgb(131, 144, 166)"
 d="M29.700,31.400 L15.300,31.400 C14.416,31.400 13.700,30.684 13.700,29.800 L13.700,15.400 C13.700,14.516 14.416,13.800 15.300,13.800 L17.300,13.800 L17.300,13.800 C17.300,13.137 17.837,12.600 18.500,12.600 C19.163,12.600 19.700,13.137 19.700,13.800 L19.700,13.800 L21.300,13.800 L21.300,13.800 C21.300,13.137 21.837,12.600 22.500,12.600 C23.163,12.600 23.700,13.137 23.700,13.800 L23.700,13.800 L25.300,13.800 L25.300,13.800 C25.300,13.137 25.837,12.600 26.500,12.600 C27.163,12.600 27.700,13.137 27.700,13.800 L27.700,13.800 L29.700,13.800 C30.584,13.800 31.300,14.516 31.300,15.400 L31.300,29.800 C31.300,30.684 30.584,31.400 29.700,31.400 ZM18.900,13.800 C18.900,13.579 18.721,13.400 18.500,13.400 C18.279,13.400 18.100,13.579 18.100,13.800 L18.100,14.600 C18.100,14.821 18.279,15.000 18.500,15.000 C18.721,15.000 18.900,14.821 18.900,14.600 L18.900,13.800 ZM22.900,13.800 C22.900,13.579 22.721,13.400 22.500,13.400 C22.279,13.400 22.100,13.579 22.100,13.800 L22.100,14.600 C22.100,14.821 22.279,15.000 22.500,15.000 C22.721,15.000 22.900,14.821 22.900,14.600 L22.900,13.800 ZM26.900,13.800 C26.900,13.579 26.721,13.400 26.500,13.400 C26.279,13.400 26.100,13.579 26.100,13.800 L26.100,14.600 C26.100,14.821 26.279,15.000 26.500,15.000 C26.721,15.000 26.900,14.821 26.900,14.600 L26.900,13.800 ZM30.500,15.400 C30.500,14.958 30.142,14.600 29.700,14.600 L27.700,14.600 C27.700,15.263 27.163,15.800 26.500,15.800 C25.837,15.800 25.300,15.263 25.300,14.600 L23.700,14.600 C23.700,15.263 23.163,15.800 22.500,15.800 C21.837,15.800 21.300,15.263 21.300,14.600 L19.700,14.600 C19.700,15.263 19.163,15.800 18.500,15.800 C17.837,15.800 17.300,15.263 17.300,14.600 L15.300,14.600 C14.858,14.600 14.500,14.958 14.500,15.400 L14.500,17.400 L30.500,17.400 L30.500,15.400 ZM30.500,18.200 L14.500,18.200 L14.500,29.800 C14.500,30.242 14.858,30.600 15.300,30.600 L29.700,30.600 C30.142,30.600 30.500,30.242 30.500,29.800 L30.500,18.200 ZM26.500,27.800 C25.837,27.800 25.300,27.263 25.300,26.600 C25.300,25.937 25.837,25.400 26.500,25.400 C27.163,25.400 27.700,25.937 27.700,26.600 C27.700,27.263 27.163,27.800 26.500,27.800 ZM26.500,26.200 C26.279,26.200 26.100,26.379 26.100,26.600 C26.100,26.821 26.279,27.000 26.500,27.000 C26.721,27.000 26.900,26.821 26.900,26.600 C26.900,26.379 26.721,26.200 26.500,26.200 ZM26.500,23.400 C25.837,23.400 25.300,22.863 25.300,22.200 C25.300,21.537 25.837,21.000 26.500,21.000 C27.163,21.000 27.700,21.537 27.700,22.200 C27.700,22.863 27.163,23.400 26.500,23.400 ZM26.500,21.800 C26.279,21.800 26.100,21.979 26.100,22.200 C26.100,22.421 26.279,22.600 26.500,22.600 C26.721,22.600 26.900,22.421 26.900,22.200 C26.900,21.979 26.721,21.800 26.500,21.800 ZM22.500,27.800 C21.837,27.800 21.300,27.263 21.300,26.600 C21.300,25.937 21.837,25.400 22.500,25.400 C23.163,25.400 23.700,25.937 23.700,26.600 C23.700,27.263 23.163,27.800 22.500,27.800 ZM22.500,26.200 C22.279,26.200 22.100,26.379 22.100,26.600 C22.100,26.821 22.279,27.000 22.500,27.000 C22.721,27.000 22.900,26.821 22.900,26.600 C22.900,26.379 22.721,26.200 22.500,26.200 ZM22.500,23.400 C21.837,23.400 21.300,22.863 21.300,22.200 C21.300,21.537 21.837,21.000 22.500,21.000 C23.163,21.000 23.700,21.537 23.700,22.200 C23.700,22.863 23.163,23.400 22.500,23.400 ZM22.500,21.800 C22.279,21.800 22.100,21.979 22.100,22.200 C22.100,22.421 22.279,22.600 22.500,22.600 C22.721,22.600 22.900,22.421 22.900,22.200 C22.900,21.979 22.721,21.800 22.500,21.800 ZM18.500,27.800 C17.837,27.800 17.300,27.263 17.300,26.600 C17.300,25.937 17.837,25.400 18.500,25.400 C19.163,25.400 19.700,25.937 19.700,26.600 C19.700,27.263 19.163,27.800 18.500,27.800 ZM18.500,26.200 C18.279,26.200 18.100,26.379 18.100,26.600 C18.100,26.821 18.279,27.000 18.500,27.000 C18.721,27.000 18.900,26.821 18.900,26.600 C18.900,26.379 18.721,26.200 18.500,26.200 ZM18.500,23.400 C17.837,23.400 17.300,22.863 17.300,22.200 C17.300,21.537 17.837,21.000 18.500,21.000 C19.163,21.000 19.700,21.537 19.700,22.200 C19.700,22.863 19.163,23.400 18.500,23.400 ZM18.500,21.800 C18.279,21.800 18.100,21.979 18.100,22.200 C18.100,22.421 18.279,22.600 18.500,22.600 C18.721,22.600 18.900,22.421 18.900,22.200 C18.900,21.979 18.721,21.800 18.500,21.800 Z"/>
</svg>
