<svg width="52" height="52" viewBox="0 0 52 52" fill="none" xmlns="http://www.w3.org/2000/svg">
<path d="M31.3221 28.5114C31.312 28.9254 31.6395 29.2693 32.0536 29.2794C32.4677 29.2895 32.8116 28.962 32.8217 28.5479L32.0719 28.5296L31.3221 28.5114ZM33.0488 19.2353C33.0589 18.8212 32.7314 18.4773 32.3173 18.4672C31.9033 18.4571 31.5594 18.7846 31.5493 19.1987L32.2991 19.217L33.0488 19.2353ZM32.3173 19.9668C32.7314 19.9567 33.0589 19.6128 33.0488 19.1987C33.0387 18.7846 32.6949 18.4571 32.2808 18.4672L32.2991 19.217L32.3173 19.9668ZM22.9681 18.6944C22.5541 18.7045 22.2266 19.0484 22.2367 19.4624C22.2468 19.8765 22.5906 20.204 23.0047 20.1939L22.9864 19.4442L22.9681 18.6944ZM32.8294 19.7474C33.1223 19.4545 33.1223 18.9796 32.8294 18.6867C32.5365 18.3938 32.0616 18.3938 31.7687 18.6867L32.2991 19.217L32.8294 19.7474ZM19.049 31.4064C18.7561 31.6993 18.7561 32.1741 19.049 32.467C19.3419 32.7599 19.8168 32.7599 20.1097 32.467L19.5794 31.9367L19.049 31.4064ZM32.0719 28.5296L32.8217 28.5479L33.0488 19.2353L32.2991 19.217L31.5493 19.1987L31.3221 28.5114L32.0719 28.5296ZM32.2991 19.217L32.2808 18.4672L22.9681 18.6944L22.9864 19.4442L23.0047 20.1939L32.3173 19.9668L32.2991 19.217ZM32.2991 19.217L31.7687 18.6867L19.049 31.4064L19.5794 31.9367L20.1097 32.467L32.8294 19.7474L32.2991 19.217Z" fill="#C6A45A"/>
</svg>
