<svg width="52" height="52" viewBox="0 0 52 52" fill="none" xmlns="http://www.w3.org/2000/svg">
<path d="M25.2082 20.6954C25.5081 20.4098 25.5197 19.9351 25.234 19.6351C24.9484 19.3352 24.4736 19.3236 24.1737 19.6092L24.6909 20.1523L25.2082 20.6954ZM17.4281 26.0337C17.1281 26.3193 17.1165 26.794 17.4022 27.094C17.6879 27.3939 18.1626 27.4055 18.4626 27.1199L17.9453 26.5768L17.4281 26.0337ZM18.4626 26.0337C18.1626 25.748 17.6879 25.7596 17.4022 26.0595C17.1165 26.3595 17.1281 26.8342 17.4281 27.1199L17.9453 26.5768L18.4626 26.0337ZM24.1737 33.5443C24.4736 33.8299 24.9484 33.8184 25.234 33.5184C25.5197 33.2185 25.5081 32.7437 25.2082 32.4581L24.6909 33.0012L24.1737 33.5443ZM17.9453 25.8268C17.5311 25.8268 17.1953 26.1625 17.1953 26.5768C17.1953 26.991 17.5311 27.3268 17.9453 27.3268L17.9453 26.5768L17.9453 25.8268ZM35.9337 27.3268C36.3479 27.3268 36.6837 26.991 36.6837 26.5768C36.6837 26.1625 36.3479 25.8268 35.9337 25.8268L35.9337 26.5768L35.9337 27.3268ZM24.6909 20.1523L24.1737 19.6092L17.4281 26.0337L17.9453 26.5768L18.4626 27.1199L25.2082 20.6954L24.6909 20.1523ZM17.9453 26.5768L17.4281 27.1199L24.1737 33.5443L24.6909 33.0012L25.2082 32.4581L18.4626 26.0337L17.9453 26.5768ZM17.9453 26.5768L17.9453 27.3268L35.9337 27.3268L35.9337 26.5768L35.9337 25.8268L17.9453 25.8268L17.9453 26.5768Z" fill="#F5F1E8"/>
</svg>
