<?xml version="1.0" encoding="UTF-8"?>
<svg id="Layer_2" data-name="Layer 2" xmlns="http://www.w3.org/2000/svg" viewBox="0 0 63 63">
  <defs>
    <style>
      .cls-1 {
        fill: #445069;
        opacity: 0;
      }

      .cls-1, .cls-2, .cls-3 {
        stroke-width: 0px;
      }

      .cls-2, .cls-3 {
        fill: #ffbdd6;
      }

      .cls-3 {
        fill-rule: evenodd;
      }
    </style>
  </defs>
  <g id="Layer_1-2" data-name="Layer 1">
    <g>
      <g id="Layer_2-2" data-name="Layer 2">
        <g id="incoming_call" data-name="incoming call">
          <path class="cls-3" d="M28.1,21.89c-1.14-1.62-3.43-1.89-4.81-.43l-1.77,1.86c-.6.64-1.06,1.52-1.01,2.55.11,2.09,1,6.36,5.66,11.26,5,5.26,9.76,5.52,11.82,5.32.84-.08,1.52-.53,2.03-1.06l1.6-1.69c1.47-1.55,1.04-4.14-.8-5.2l-2.15-1.24c-1.24-.71-2.78-.51-3.76.53l-.46.48s-.13.04-.33,0c-.45-.07-1.43-.47-3.05-2.17s-2.01-2.74-2.09-3.25c-.04-.25,0-.38.02-.42h0s.28-.3.28-.3c1.09-1.15,1.17-2.95.25-4.24l-1.42-2.01ZM24.51,22.62c.59-.62,1.63-.57,2.21.25l1.42,2.01c.48.67.4,1.57-.1,2.1l-.32.34.6.57q-.6-.57-.6-.57h0s0,.01,0,.01l-.02.02s-.02.03-.03.04c-.02.03-.05.07-.08.12-.07.11-.13.24-.18.37-.11.31-.17.72-.1,1.23.15,1.01.81,2.36,2.53,4.17,1.72,1.81,3.02,2.52,4,2.68.51.08.92.02,1.23-.11.13-.05.25-.12.36-.19.05-.03.08-.06.11-.09l.04-.03.02-.02h0s0-.01,0-.01h0l-.59-.57.59.56.51-.54c.43-.46,1.11-.56,1.69-.23l2.15,1.24c.93.53,1.11,1.84.42,2.57l-1.6,1.69c-.32.33-.65.51-.96.54-1.62.16-5.84.02-10.43-4.8-4.37-4.6-5.1-8.49-5.2-10.19-.02-.45.17-.9.55-1.29l1.77-1.87Z"/>
          <path class="cls-2" d="M38.27,28.96c.47,0,.85-.38.85-.85,0-.47-.38-.85-.85-.85h-1.34l3.07-3.07c.33-.33.33-.87,0-1.2-.33-.33-.87-.33-1.2,0l-3.07,3.07v-1.34c0-.47-.38-.85-.85-.85-.47,0-.85.38-.85.85v3.38c0,.47.38.85.85.85,0,0,0,0,0,0h3.39Z"/>
        </g>
      </g>
      <rect class="cls-1" width="63" height="63"/>
    </g>
  </g>
</svg>