<?xml version="1.0" encoding="utf-8"?>
<!-- Generator: Adobe Illustrator 19.0.0, SVG Export Plug-In . SVG Version: 6.00 Build 0)  -->
<svg version="1.1" id="Layer_1" xmlns="http://www.w3.org/2000/svg" xmlns:xlink="http://www.w3.org/1999/xlink" x="0px" y="0px"
	 width="596px" height="392px" viewBox="0 0 596 392" style="enable-background:new 0 0 596 392;" xml:space="preserve">
<style type="text/css">
	.st0{fill:#FFFFFF;}
</style>
<path class="st0" d="M570.5,216h-25.4v0.6c0.8,0,2.7,0.7,3.8,1.3c1.2,0.8,3.2,2.2,3.2,5.2v37.1c0,3-2,4.5-3.2,5.2
	c-1,0.7-3,1.3-3.8,1.3v0.6h25.4c12.4,0,26.3-6,26.3-25.7C596.8,222.1,582.9,216,570.5,216 M570.5,262.6h-7.3v-41.7h7.3
	c10.1,0,15,9.3,15,20.8C585.6,253.3,580.6,262.6,570.5,262.6"/>
<path class="st0" d="M159.5,257.5h-0.6c0,1.8-1.1,3-2.1,3.8c-1.1,0.8-2.6,1.4-4.3,1.4h-16.1v-18.8h6.5c1.6,0,3.2,0.5,4.3,1.4
	c1.1,0.8,2.1,1.9,2.1,3.8h0.6v-15.1h-0.6c0,1.8-1.1,3-2.1,3.8c-1.1,0.8-2.6,1.4-4.3,1.4h-6.5v-18h16.1c1.6,0,3.2,0.5,4.3,1.4
	c1.1,0.8,2.1,1.9,2.1,3.8h0.6v-10h-41.2v0.6c0.8,0,2.7,0.7,3.8,1.3c1.2,0.8,3.2,2.2,3.2,5.2v37.1c0,3-2,4.5-3.2,5.2
	c-1,0.7-3,1.3-3.8,1.3v0.6h41.2V257.5z"/>
<path class="st0" d="M196.7,216.6c0.8,0,2.7,0.7,3.8,1.3c1.2,0.8,3.2,2.2,3.2,5.2v37.1c0,3-2,4.5-3.2,5.2c-1,0.7-3,1.3-3.8,1.3v0.6
	h41.2v-10h-0.6c0,1.8-1.1,3-2.1,3.8c-1.1,0.8-2.6,1.4-4.3,1.4h-16.1v-18.8h6.5c1.6,0,3.2,0.5,4.3,1.4c1.1,0.8,2.1,1.9,2.1,3.8h0.6
	v-15.1h-0.6c0,1.8-1,3-2.1,3.8c-1.1,0.8-2.6,1.4-4.3,1.4h-6.5v-18h16.1c1.6,0,3.2,0.5,4.3,1.4c1.1,0.8,2.1,1.9,2.1,3.8h0.6v-10
	h-41.2V216.6z"/>
<path class="st0" d="M366.9,257.5h-0.6c0,1.8-1.1,3-2.1,3.8c-1.1,0.8-2.6,1.4-4.3,1.4h-16.1v-18.8h6.5c1.6,0,3.2,0.5,4.3,1.4
	c1.1,0.8,2.1,1.9,2.1,3.8h0.6v-15.1h-0.6c0,1.8-1.1,3-2.1,3.8c-1.1,0.8-2.6,1.4-4.3,1.4h-6.5v-18H360c1.6,0,3.2,0.5,4.3,1.4
	c1.1,0.8,2.1,1.9,2.1,3.8h0.6v-10h-41.2v0.6c0.8,0,2.7,0.7,3.8,1.3c1.2,0.8,3.2,2.2,3.2,5.2v37.1c0,3-2,4.5-3.2,5.2
	c-1,0.7-3,1.3-3.8,1.3v0.6h41.2V257.5z"/>
<path class="st0" d="M84,216.6c0.7,0,2.7,0.7,3.8,1.3c1.2,0.8,3.2,2.2,3.2,5.2v15.7H71.8v-15.7c0-3,2-4.5,3.2-5.2
	c1-0.7,3-1.3,3.8-1.3V216H53.6v0.6c0.8,0,2.7,0.7,3.8,1.3c1.2,0.8,3.2,2.2,3.2,5.2v37.1c0,3-2,4.5-3.2,5.2c-1,0.7-3,1.3-3.8,1.3v0.6
	h25.1v-0.6c-0.8,0-2.7-0.7-3.8-1.3c-1.2-0.8-3.2-2.2-3.2-5.2v-16.5h19.1v16.5c0,3-2,4.5-3.2,5.2c-1,0.7-3,1.3-3.8,1.3v0.6h25.1v-0.6
	c-0.7,0-2.7-0.7-3.8-1.3c-1.2-0.8-3.2-2.2-3.2-5.2v-37.1c0-3,2-4.5,3.2-5.2c1-0.7,3-1.3,3.8-1.3V216H84V216.6z"/>
<path class="st0" d="M537.8,262c-0.9,0.5-2.8,0.6-4.4,0.6h-14.6v-39.4c0-3,2-4.5,3.2-5.2c1-0.7,3-1.3,3.8-1.3V216h-25.1v0.6
	c0.8,0,2.7,0.7,3.8,1.3c1.2,0.8,3.2,2.2,3.2,5.2v37.1c0,3-2,4.5-3.2,5.2c-1,0.7-3,1.3-3.8,1.3v0.6h39.7v-8.3h-0.6
	C539.8,260.5,539,261.4,537.8,262"/>
<path class="st0" d="M261.2,267.4v-0.6c-0.7,0-2.2-0.7-3.2-1.5c-1.1-0.9-2.4-2.8-2.6-5.1v-35.8l21.7,43l6.5-12.9l14.5-28.8v34.6
	c0,3-2,4.5-3.2,5.2c-1,0.7-3,1.3-3.8,1.3v0.6h25.1v-0.6c-0.7,0-2.7-0.6-3.8-1.3c-1.2-0.8-3.2-2.2-3.2-5.2v-37.1c0-3,2-4.5,3.2-5.2
	c1-0.7,3-1.3,3.8-1.3V216h-18.2l-17,33.7l-17-33.7h-13h-5.7v0.6c0.7,0,2.2,0.7,3.2,1.5c1.1,0.9,2.4,2.8,2.6,5.1v37.1
	c-0.2,2.3-1.5,4.1-2.6,5.1c-0.9,0.8-2.4,1.5-3.2,1.5v0.6h5.7H261.2z"/>
<path class="st0" d="M430,266.8c-0.7,0-2.9-0.7-4.3-1.6c-1.3-0.8-2.8-1.5-5-5v0l-7.8-16c3.9,0.1,9.7-2.9,10.3-11.6
	c0.1-1.6-0.1-3-0.3-4.3c-2-12.8-12.9-12.4-19.1-12.4h-21.9l-6.8,0v0.6c0.7,0,2.7,0.7,3.8,1.3c1,0.6,2.5,1.7,3,3.8v38.5
	c0,3-2,4.5-3.2,5.2c-1,0.7-3,1.3-3.8,1.3v0.6h25.1v-0.6c-0.7,0-2.7-0.7-3.8-1.3c-1.2-0.8-3.2-2.2-3.2-5.2v-14.1h7.3l6.6,14.1
	c1.4,2.3,1.1,4.2,0,5.2c-0.9,0.9-3,1.3-3.8,1.3v0.6h8.1H430V266.8z M403.8,241.3L403.8,241.3l-10.7,0v-20.4h10.7
	c4.5,0,8.2,5,8.2,10.2S408.4,241.3,403.8,241.3"/>
<path class="st0" d="M0.3,226h0.6c0-1.8,1.1-3,2.1-3.8c1.1-0.8,2.6-1.4,4.3-1.4h8.9v39.4c0,3-2,4.5-3.2,5.2c-1,0.7-3,1.3-3.8,1.3
	v0.6h18.2h6.9v-0.6c-0.7,0-2.7-0.7-3.8-1.3c-1.2-0.8-3.2-2.2-3.2-5.2v-39.4h8.8c1.6,0,3.2,0.5,4.3,1.4c1.1,0.8,2.1,1.9,2.1,3.8h0.6
	v-10H0.3V226z"/>
<path class="st0" d="M490.3,265.5c-1.3-0.8-3.1-2.3-4.2-5.2L469.7,216h-18.9v0.6c0.8,0,2.6,0.2,3.6,1.2c1,1,1.3,3,0.4,5.3
	l-13.7,37.1c-0.7,1.8-2.4,4.1-3.4,5.1c-0.9,0.8-2.4,1.5-3.2,1.5v0.6h15.2v-0.6c-0.8,0-2.6-0.2-3.6-1.2c-1-1-1.3-3.1-0.4-5.3l0.8-2.1
	l1.8-4.8l2.7-7.2h17.7l2.7,7.2l1.8,4.8l0.8,2.1c0.7,1.8-0.2,4.4-1.5,5.4c-1,0.8-3.2,1.2-3.9,1.2v0.6h25.6v-0.6
	C493.4,266.8,491.6,266.3,490.3,265.5 M452.7,241.3l7.1-19.1l7.1,19.1H452.7z"/>
<polygon class="st0" points="228.7,60.3 176.6,90 176.6,31.3 228.7,0.8 "/>
<polygon class="st0" points="239.2,60.3 291.3,90 291.3,31.3 239.2,0.8 "/>
<polygon class="st0" points="356.9,60.3 304.9,90 304.9,31.3 356.9,0.8 "/>
<polygon class="st0" points="367.5,60.3 419.6,90 419.6,31.3 367.5,0.8 "/>
<polygon class="st0" points="166,158.9 114,188.7 114,130 166,99.4 "/>
<polygon class="st0" points="176.6,158.9 228.7,188.7 228.7,130 176.6,99.4 "/>
<polygon class="st0" points="292.3,158.9 240.2,188.7 240.2,130 292.3,99.4 "/>
<polygon class="st0" points="304.9,158.9 356.9,188.7 356.9,130 304.9,99.4 "/>
<polygon class="st0" points="420.6,158.9 368.5,188.7 368.5,130 420.6,99.4 "/>
<polygon class="st0" points="431.1,158.9 483.2,188.7 483.2,130 431.1,99.4 "/>
<path class="st0" d="M80.9,316.4h9.5c7,0,11.4,3.3,11.4,9.2c0,6-4.2,9.8-11.4,9.8h-9.5V316.4z M80.9,294.1h8.4
	c6.9,0,10.3,3.3,10.3,9c0,5.5-4,9-10.5,9h-8.2V294.1z M64.1,289.8c4.7,2,6.9,4,6.9,7v35.9c0,3-2.1,5-6.9,7h29.4
	c11,0,18.7-5.1,18.7-13.7c0-6.4-5.1-11.2-12-12.9c5.1-1.7,9.8-5.7,9.8-11.1c0-7.5-6.3-12.2-17.2-12.2H64.1z M127.5,314.7
	c0-13.8,6.6-21.3,15.6-21.3c8.9,0,15.6,7.5,15.6,21.3c0,13.8-6.7,21.3-15.6,21.3C134.1,336,127.5,328.5,127.5,314.7 M117.2,314.7
	c0,16.3,11.2,26.1,25.9,26.1c14.6,0,25.9-9.9,25.9-26.1c0-16.1-11.3-26.1-25.9-26.1C128.4,288.6,117.2,298.4,117.2,314.7
	 M207.2,289.8c5.7,2.3,8.5,4.2,8.5,7.5v25.8c0,8-6.9,11.9-14.1,11.9c-7.4,0-14.1-3.9-14.1-11.7v-26.5c0-3,2.9-5,9.2-7h-25.9
	c4.8,2,6.9,4,6.9,7v26.1c0,10.8,9.8,17.9,22.3,17.9c12.6,0,20.7-7.3,20.7-18.1v-25.4c0-3,2.1-5.3,6.9-7.5H207.2z M229.3,289.8
	c4.7,2,6.9,4,6.9,7v35.9c0,3-2.1,5-6.9,7h42.3V324c-3.8,7.9-6.9,11.3-14.1,11.3h-11.4v-38.6c0-3,2.8-5,9.2-7H229.3z M275.4,289.8
	c4.7,2,6.9,4,6.9,7v35.9c0,3-2.1,5-6.9,7h43.1v-14.3c-3.8,6.9-6.9,10-14.1,10h-12.2v-19h9.2c3.6,0,5.7,1.7,8,5.3v-15
	c-2.3,3.7-4.4,5.3-8,5.3h-9.2v-18H304c7.2,0,10.3,2.2,14.1,8.3v-12.6H275.4z M358.2,289.8c6.1,2.9,8.6,4.5,7.4,7.5l-13.7,32.3
	l-15.3-32.1c-1.3-2.7,2.1-5,8.9-7.6h-26.7c3.6,2.3,5.6,4.9,6.8,7.5l21,42.6h5l19.1-43c1.1-2.4,3.1-4.9,6.8-7.2H358.2z M391.7,299.8
	l10.1,20.8h-19.1L391.7,299.8z M392.1,289.5l-19.5,43c-1.1,2.5-3.1,4.9-6.8,7.2h19.4c-6.1-2.7-8.8-4.2-7.5-7.4l3.3-7.6h22.8l3.6,7.4
	c1.4,3-2,5.2-8.8,7.6h27.1c-3.4-2.1-5.9-4.8-7.2-7.5l-21.4-42.7H392.1z M440.9,294.1h8.5c8,0,11.7,3.9,11.7,10
	c0,6.9-4.2,10.8-13,10.8h-7.2V294.1z M424.1,289.8c4.7,2,6.9,4,6.9,7v35.9c0,3-2.1,5-6.9,7h24.8c-5.2-2-8-4-8-7v-13.8h6.7l15.9,20.8
	h15.6c-3.4-2-6.3-4.7-8.1-6.9L457.5,317c7.2-1.5,13.9-5.8,13.9-13c0-9.2-7-14.2-19.3-14.2H424.1z M496.2,294.1h7.8
	c11.7,0,17.8,8.3,17.8,20.6s-6.1,20.6-17.8,20.6h-7.8V294.1z M479.4,289.8c4.7,2,6.9,4,6.9,7v35.9c0,3-2.1,5-6.9,7h26.5
	c15.9,0,26.2-9,26.2-24.9c0-16-10.3-24.9-26.2-24.9H479.4z"/>
<path class="st0" d="M124,364.9c0,0-0.1,0-0.1,0c-0.2,0-0.4-0.2-0.5-0.4c0-0.1-0.1-0.2-0.2-0.4c-0.1-0.2-0.3-0.7-0.3-0.8l-1.5,1.1
	c-0.1,0.1-0.2,0.1-0.4,0.1c-0.1,0-0.2,0-0.3-0.1c-0.2-0.1-0.3-0.2-0.4-0.3c-0.1-0.1-0.2-0.3-0.3-0.5c-0.1-0.3,0-0.5,0.2-0.7l2.5-1.9
	c0.2-0.1,0.4-0.2,0.6-0.2c0.4,0,0.7,0.2,0.9,0.6c0,0,0.1,0.2,0.2,0.5l0.3,0.8c0.1,0.3,0.2,0.5,0.3,0.8c0.1,0.2,0.1,0.3,0.1,0.4
	c0.1,0.2,0.1,0.4-0.2,0.6c-0.1,0.1-0.3,0.2-0.4,0.3C124.3,364.9,124.1,364.9,124,364.9 M127.7,362.6c0.1,0,0.2,0,0.3-0.1
	c0.3-0.1,0.5-0.2,0.8-0.4c0.3-0.1,0.5-0.3,0.8-0.4c0.3-0.2,0.5-0.3,0.8-0.5c0.3-0.2,0.5-0.4,0.8-0.7c0.2-0.2,0.3-0.5,0.3-0.8
	c0-0.2-0.1-0.4-0.3-0.6c-0.1-0.2-0.3-0.3-0.5-0.4c-0.1,0-0.2-0.1-0.3-0.1c-0.2,0-0.4,0.1-0.5,0.3c0,0.1-0.2,0.2-0.4,0.4
	c-0.2,0.2-0.4,0.4-0.7,0.6c-0.3,0.2-0.5,0.4-0.8,0.6c-0.3,0.2-0.5,0.3-0.7,0.3c-0.3,0.1-0.4,0.3-0.4,0.6c0,0.2,0,0.4,0.1,0.5
	c0.1,0.2,0.2,0.3,0.4,0.4C127.4,362.6,127.5,362.6,127.7,362.6 M189.2,365.4c0.1,0,0.3,0,0.4-0.1c0.2-0.1,0.3-0.1,0.4-0.3
	c0.2-0.2,0.2-0.5,0.2-0.6c0-0.1-0.1-0.2-0.1-0.4c-0.1-0.2-0.2-0.5-0.3-0.8l-0.3-0.8c-0.1-0.3-0.1-0.4-0.2-0.5
	c-0.1-0.4-0.4-0.6-0.9-0.6c-0.2,0-0.4,0.1-0.6,0.2l-2.5,1.9c-0.2,0.1-0.3,0.4-0.2,0.7c0,0.2,0.1,0.3,0.3,0.5
	c0.1,0.1,0.3,0.2,0.4,0.3c0.1,0,0.2,0.1,0.3,0.1c0.1,0,0.3,0,0.4-0.1l1.5-1.1c0,0.1,0.3,0.7,0.3,0.8c0.1,0.2,0.1,0.3,0.2,0.4
	c0.1,0.2,0.3,0.3,0.5,0.4C189.1,365.4,189.2,365.4,189.2,365.4 M190.6,362.7c0.1,0,0.2,0,0.3-0.1c0.3-0.1,0.5-0.2,0.8-0.4
	c0.3-0.1,0.5-0.3,0.8-0.4c0.3-0.1,0.5-0.3,0.8-0.5c0.3-0.2,0.5-0.4,0.8-0.7c0.2-0.2,0.3-0.5,0.3-0.8c0-0.2-0.1-0.4-0.3-0.6
	c-0.1-0.2-0.3-0.3-0.5-0.4c-0.1,0-0.2-0.1-0.3-0.1c-0.2,0-0.4,0.1-0.5,0.3c0,0.1-0.2,0.2-0.4,0.4c-0.2,0.2-0.4,0.4-0.7,0.6
	c-0.3,0.2-0.5,0.4-0.8,0.6c-0.3,0.2-0.5,0.3-0.7,0.3c-0.3,0.1-0.4,0.3-0.4,0.6c0,0.2,0,0.4,0.1,0.5c0.1,0.2,0.2,0.3,0.4,0.4
	C190.3,362.6,190.5,362.7,190.6,362.7 M313.2,369.3L313.2,369.3c0.8,0,1.6-0.1,2.5-0.1c0.9,0,1.7,0,2.6-0.1c0.8,0,1.5,0,2.2,0
	c0.6,0,1.1,0,1.3,0h0.5c0.2,0,0.4,0,0.5,0c0.2,0,0.4-0.1,0.5-0.2c0.2-0.2,0.3-0.5,0.1-0.7c-0.1-0.3-0.5-0.4-0.7-0.5
	c-0.3-0.1-0.6-0.2-0.9-0.2c-0.3-0.1-0.6-0.1-0.9-0.1c-0.3,0-0.5,0-0.6,0c-0.4,0-1,0-1.7,0c-0.7,0-1.4,0-2.1,0c-0.7,0-1.4,0-2.1,0
	c-0.7,0-1.2,0-1.5,0.1h0l0,0c-0.1,0-0.4,0.1-0.4,0.6c0,0.2,0,0.3,0.1,0.5c0.1,0.2,0.1,0.3,0.2,0.5
	C312.8,369.1,312.9,369.3,313.2,369.3L313.2,369.3z M458.2,365.2c0.1,0,0.2,0,0.3-0.1c0.3-0.1,0.5-0.2,0.8-0.4
	c0.3-0.1,0.5-0.3,0.8-0.4c0.3-0.1,0.5-0.3,0.8-0.5c0.3-0.2,0.5-0.4,0.8-0.7c0.2-0.2,0.3-0.5,0.3-0.8c0-0.2-0.1-0.4-0.3-0.6
	c-0.1-0.2-0.3-0.3-0.5-0.4c-0.1,0-0.2-0.1-0.3-0.1c-0.2,0-0.4,0.1-0.5,0.3c0,0.1-0.2,0.2-0.4,0.4c-0.2,0.2-0.4,0.4-0.7,0.6
	c-0.3,0.2-0.5,0.4-0.8,0.6c-0.3,0.2-0.5,0.3-0.7,0.3c-0.3,0.1-0.4,0.3-0.4,0.6c0,0.2,0,0.4,0.1,0.5c0.1,0.2,0.2,0.3,0.4,0.4
	C457.9,365.1,458,365.2,458.2,365.2 M98.1,378.7c0.7,0,1.5-0.1,2.3-0.2c0.9-0.1,1.8-0.3,2.7-0.5c0.9-0.2,1.8-0.4,2.7-0.7
	c0.9-0.3,1.7-0.6,2.4-0.9c0.8-0.4,1.5-0.8,2.3-1.2c0.7-0.4,1.4-0.9,2-1.3c0.6-0.5,1-1,1.4-1.6c0.3-0.6,0.5-1.2,0.4-1.8
	c0-0.5-0.3-0.9-0.7-1.4c-0.4-0.4-0.8-0.7-1.4-1c-0.5-0.3-1.1-0.6-1.8-0.8c-0.6-0.2-1.3-0.5-1.9-0.7c-0.6-0.2-1.2-0.4-1.8-0.5
	c-0.6-0.1-1-0.3-1.4-0.4l-1.7-0.5c-0.6-0.2-1.1-0.3-1.6-0.5c-0.5-0.2-0.9-0.4-1.2-0.6c-0.2-0.2-0.3-0.3-0.4-0.4
	c0-0.4,0.1-0.9,0.5-1.4c0.4-0.6,1-1.2,1.8-1.9c0.8-0.7,1.7-1.3,2.7-2c1-0.7,2.2-1.3,3.3-2c1.2-0.6,2.3-1.2,3.5-1.7
	c1.2-0.5,2.4-1,3.4-1.4c1.1-0.4,2.1-0.7,3-0.9c0.6-0.1,1.2-0.2,1.6-0.2c0.2,0,0.3,0,0.4,0c0.2,0,0.4,0,0.5,0.1
	c0.2,0,0.3,0.1,0.5,0.2c0.2,0.1,0.4,0.2,0.4,0.4l0,0.2c0,0.2,0.1,0.4,0.3,0.5c0.2,0.2,0.4,0.3,0.7,0.3c0.1,0,0.1,0,0.2,0
	c0.2,0,0.4-0.1,0.5-0.2c0.2-0.2,0.4-0.4,0.3-0.7c-0.1-0.5-0.3-1-0.7-1.3c-0.3-0.3-0.7-0.6-1.2-0.8c-0.2-0.1-0.4-0.1-0.7-0.2
	c-0.3-0.1-0.6-0.1-0.9-0.1c-0.2,0-0.4,0-0.6,0c-0.6,0-1.3,0.1-2,0.2c-1,0.2-2.1,0.5-3.3,0.9c-1.2,0.4-2.4,0.9-3.7,1.4
	c-1.3,0.6-2.5,1.2-3.8,1.8c-1.2,0.7-2.4,1.4-3.5,2.1c-1.1,0.7-2.1,1.5-2.9,2.2c-0.8,0.8-1.5,1.5-1.9,2.3c-0.5,0.8-0.7,1.6-0.6,2.3
	c0.1,0.5,0.4,1,0.8,1.4c0.4,0.3,0.9,0.6,1.5,0.9c0.6,0.2,1.2,0.5,1.9,0.6c0.7,0.2,1.4,0.3,2,0.5c0.3,0.1,0.8,0.2,1.2,0.3
	c0.5,0.1,1,0.3,1.5,0.4c0.5,0.2,1.1,0.3,1.6,0.5c0.5,0.2,1,0.4,1.4,0.6c0.4,0.2,0.8,0.4,1,0.7c0.2,0.2,0.4,0.4,0.4,0.6
	c0.1,0.3,0,0.6-0.2,1c-0.2,0.4-0.6,0.8-1,1.2c-0.5,0.4-1,0.8-1.6,1.2c-0.6,0.4-1.3,0.8-2,1.1c-0.5,0.2-1.1,0.4-1.8,0.7
	c-0.8,0.3-1.6,0.5-2.4,0.7c-0.8,0.2-1.7,0.4-2.6,0.6c-0.8,0.2-1.6,0.2-2.3,0.2c-0.5,0-0.9,0-1.2-0.1c-0.1-0.1-0.2-0.1-0.4-0.1
	c-0.1,0-0.3,0-0.5,0.1c-0.4,0.2-0.5,0.5-0.4,0.9c0.1,0.3,0.4,0.5,0.9,0.6C97.1,378.7,97.5,378.7,98.1,378.7 M118.9,373.8
	c0.5,0,0.9-0.1,1.4-0.4c0.4-0.2,0.8-0.5,1.1-0.8c0.3-0.3,0.6-0.7,0.9-1.1c0.3-0.4,0.5-0.8,0.6-1.1c0.4-0.9,0.6-1.8,0.6-2.7
	c0-0.2,0-0.4,0-0.7c0,0,0-0.1,0-0.1c0.5,0.2,1.1,0.3,1.7,0.5c0.9,0.2,1.7,0.3,2.6,0.3c0.3,0,0.5,0,0.8,0c0.2,0,0.5,0,0.7-0.1
	c0.4-0.1,0.7-0.2,1-0.4c0.3-0.3,0.3-0.6,0.2-0.7c0-0.1-0.2-0.3-0.4-0.4c-0.1-0.1-0.3-0.1-0.4-0.1c0,0-0.1,0-0.1,0
	c-0.2,0-0.4,0.1-0.5,0.2c-0.1,0-0.3,0.1-0.4,0.1c-0.2,0-0.4,0-0.6,0c-0.4,0-0.9-0.1-1.4-0.2c-0.5-0.1-1-0.2-1.4-0.4
	c-0.5-0.2-0.9-0.3-1.3-0.5c-0.4-0.2-0.8-0.3-1-0.5l0,0l0,0c-0.2,0-0.4-0.1-0.6-0.1l-0.1,0c-0.3,0-0.5,0.1-0.8,0.2
	c-0.6,0.3-1.1,0.7-1.7,1.2c-0.5,0.5-1,1.1-1.4,1.7c-0.4,0.6-0.8,1.3-1,1.9c-0.3,0.7-0.4,1.3-0.4,1.9c0,0.3,0.1,0.6,0.2,0.9
	c0.1,0.3,0.3,0.5,0.5,0.7c0.2,0.2,0.4,0.4,0.7,0.5C118.3,373.8,118.6,373.8,118.9,373.8 M121.2,367c0.1,0,0.1-0.1,0.2-0.1
	c0,0.2,0,0.3,0,0.5c0,0.8-0.1,1.6-0.4,2.3c-0.1,0.2-0.2,0.5-0.4,0.8c-0.2,0.3-0.4,0.6-0.6,0.9c-0.2,0.3-0.4,0.5-0.7,0.7
	c-0.2,0.1-0.4,0.2-0.5,0.3c0,0,0-0.1,0-0.3c0-0.2,0-0.4,0.1-0.6c0-0.2,0.1-0.5,0.2-0.7c0.1-0.2,0.1-0.4,0.2-0.6
	c0.1-0.2,0.2-0.3,0.2-0.5c0.2-0.3,0.3-0.7,0.5-1c0.2-0.3,0.4-0.6,0.6-0.9C120.7,367.5,121,367.3,121.2,367 M126.4,374.3
	c0.1,0,0.1,0,0.2,0c0.2,0,0.4-0.2,0.6-0.6c0.2-0.3,0.5-0.7,0.9-1.1c0.4-0.5,0.8-0.9,1.3-1.4c0.4-0.5,0.9-0.9,1.4-1.3
	c0.5-0.4,0.9-0.8,1.3-1.1c0.4-0.3,0.8-0.5,1.1-0.7c0.1-0.1,0.2-0.1,0.3-0.1c0,0,0,0,0,0c0,0.2-0.1,0.5-0.1,0.8
	c-0.1,0.3-0.1,0.7-0.2,1c-0.1,0.4-0.1,0.7-0.1,1.1c0,0.6,0.3,1.1,0.7,1.5c0.4,0.4,0.9,0.6,1.4,0.6l0.1,0c0.4,0,0.9-0.1,1.3-0.3
	c0.5-0.2,1-0.5,1.5-0.8c0.5-0.3,1-0.7,1.5-1.1c0.5-0.4,0.9-0.8,1.3-1.2c0.4-0.4,0.7-0.8,0.9-1.1c0.3-0.4,0.4-0.8,0.3-1.1
	c-0.1-0.3-0.3-0.4-0.5-0.4c-0.1,0-0.2,0-0.2,0c-0.2,0.1-0.4,0.2-0.5,0.3c-0.4,0.4-0.9,0.8-1.4,1.2c-0.5,0.4-1,0.8-1.5,1.1
	c-0.5,0.3-1,0.6-1.5,0.9c-0.5,0.2-0.8,0.4-1.1,0.5c-0.1,0-0.2,0.1-0.3,0.1c0,0,0-0.1,0-0.1c0-0.3,0.1-0.6,0.1-0.9
	c0.1-0.4,0.1-0.7,0.2-1.1c0.1-0.4,0.1-0.7,0.1-0.9c-0.1-0.5-0.3-0.9-0.6-1.2c-0.3-0.3-0.7-0.5-1.2-0.5c-0.1,0-0.2,0-0.3,0
	c-0.3,0-0.6,0.1-0.9,0.2c-0.4,0.1-0.8,0.3-1.2,0.6c-0.3,0.2-0.6,0.4-0.8,0.5c0,0,0-0.1,0-0.1c0.2-0.3,0.4-0.7,0.6-1.2
	c0.1-0.2,0-0.5-0.1-0.7c-0.1-0.2-0.3-0.3-0.4-0.4c-0.2-0.1-0.3-0.2-0.5-0.2l-0.1,0h0c-0.2,0-0.4,0.1-0.5,0.3l-2.1,3.9
	c0,0-1,1.8-1.2,2.3c-0.2,0.5-0.5,0.9-0.7,1.3c-0.1,0.3-0.2,0.6,0,0.8c0.1,0.2,0.3,0.4,0.5,0.5C126.1,374.2,126.2,374.3,126.4,374.3
	 M132.8,391.5c0.7,0,1.4-0.2,2.2-0.7c0.8-0.4,1.5-1,2.1-1.7c0.4-0.5,0.9-1.1,1.3-1.8c0.4-0.7,0.9-1.5,1.4-2.3
	c0.5-0.8,0.9-1.7,1.4-2.6l1.3-2.6c0.4-0.9,0.8-1.7,1.2-2.5c0.4-0.8,0.7-1.4,1.1-2.1c0.7-0.4,1.4-0.8,2.1-1.2
	c0.8-0.4,1.5-0.8,2.2-1.2c0.7-0.4,1.4-0.7,2-1.1l1.6-0.8l0,0c0.4-0.3,0.5-0.5,0.5-0.8c0-0.1-0.1-0.4-0.6-0.4c-0.2,0-0.3,0-0.5,0.1
	c-0.2,0-0.3,0.1-0.3,0.1c-0.2,0-0.5,0.1-0.9,0.3c-0.4,0.1-0.8,0.3-1.2,0.5c-0.4,0.2-0.9,0.4-1.4,0.6c-0.5,0.2-0.9,0.4-1.4,0.7
	c-0.3,0.2-0.6,0.3-0.9,0.4c0.1-0.1,0.8-1.4,1-2c0.3-0.5,0.6-1.1,0.9-1.6l0.8-1.4c0.2-0.4,1-1.8,1-1.8c0.1-0.2,0.1-0.4,0-0.6
	c0-0.2-0.1-0.3-0.2-0.5c-0.1-0.1-0.2-0.2-0.4-0.3c-0.2-0.1-0.3-0.2-0.5-0.2c-0.3,0-0.5,0.1-0.6,0.4l-0.1,0.1c-0.2,0.3-0.5,0.7-0.8,1
	c-0.1,0.1-0.2,0.3-0.4,0.4c-0.1-0.2-0.1-0.3-0.2-0.5c-0.2-0.4-0.6-0.7-1.1-0.8c-0.1,0-0.3,0-0.4,0c-0.3,0-0.7,0.1-1,0.2
	c-0.5,0.2-0.9,0.4-1.4,0.7c-0.5,0.3-0.9,0.7-1.3,1.1c-0.4,0.4-0.8,0.9-1.1,1.4c-0.3,0.5-0.6,1-0.8,1.5c-0.2,0.5-0.3,1-0.3,1.4
	c0,0.3,0,0.5,0.1,0.7c0.1,0.2,0.2,0.4,0.3,0.6c0.2,0.2,0.3,0.4,0.5,0.5c0.2,0.1,0.4,0.3,0.7,0.3c0.1,0,0.3,0.1,0.4,0.1
	c0.1,0,0.3,0,0.4-0.1c0.3-0.1,0.6-0.2,0.9-0.5c0.3-0.2,0.7-0.5,1.1-0.8c0.3-0.2,0.6-0.5,0.8-0.7l-0.3,0.6c-0.5,0.8-0.9,1.6-1.2,2.3
	c-0.4,0.3-1,0.6-1.8,1.1c-0.8,0.5-1.7,1.1-2.7,1.7c-1,0.6-2,1.4-3,2.2c-1,0.8-2,1.7-2.9,2.6c-0.9,0.9-1.6,1.9-2.2,2.8
	c-0.6,1-0.9,2-0.9,3.1c0,0.6,0.1,1.1,0.2,1.6c0.2,0.5,0.4,0.9,0.7,1.2c0.3,0.4,0.7,0.6,1.1,0.8C131.9,391.4,132.4,391.5,132.8,391.5
	 M141.5,377.2c-0.1,0.1-0.7,1.5-0.7,1.5c-0.2,0.4-0.5,1-0.9,1.7c-0.4,0.8-0.8,1.5-1.2,2.2c-0.4,0.7-0.8,1.4-1.1,2.1
	c-0.4,0.6-0.7,1.3-1.1,1.8c-0.4,0.6-0.7,1-1,1.4c-0.5,0.6-0.9,1-1.4,1.3c-0.5,0.3-0.9,0.4-1.3,0.4c-0.4,0-0.6-0.1-0.9-0.4
	c-0.2-0.3-0.4-0.8-0.4-1.4c0-0.5,0.1-1,0.3-1.5c0.2-0.5,0.5-1.1,0.8-1.6c0.3-0.5,0.7-1.1,1.2-1.6c0.5-0.5,1-1,1.5-1.5
	c0.4-0.4,0.9-0.7,1.4-1.2c0.5-0.4,1.1-0.9,1.8-1.4c0.6-0.5,1.3-1,2-1.4C140.8,377.7,141.2,377.4,141.5,377.2 M145.3,366.6
	C145.3,366.6,145.3,366.6,145.3,366.6c0.1,0,0.1,0.1,0.1,0.2c0,0.2,0,0.4-0.1,0.6c-0.1,0.2-0.1,0.3-0.2,0.4
	c-0.2,0.1-0.3,0.3-0.3,0.5c-0.4,0.4-0.8,0.8-1.2,1.1c-0.4,0.4-0.8,0.7-1.2,1c-0.4,0.3-0.7,0.5-0.9,0.7c0,0,0,0-0.1,0
	c0-0.2,0-0.3,0.1-0.5c0.1-0.4,0.3-0.8,0.5-1.2c0.2-0.4,0.5-0.8,0.8-1.2c0.3-0.4,0.7-0.7,1-1c0.3-0.3,0.7-0.5,1-0.6
	C144.9,366.7,145.1,366.6,145.3,366.6L145.3,366.6z M159.9,374.4c0.5,0,1.1-0.1,1.8-0.4c0.7-0.3,1.5-0.7,2.2-1.1
	c0.8-0.4,1.6-1,2.4-1.5c0.8-0.6,1.5-1.1,2.2-1.7c0.7-0.5,1.2-1.1,1.7-1.5c0.5-0.5,0.8-0.9,0.9-1.2c0.1-0.2,0.1-0.4-0.1-0.6l-0.1-0.1
	h-0.2c-0.2,0-0.3,0.1-0.6,0.3c-0.2,0.2-0.5,0.4-0.9,0.7c-0.4,0.3-0.9,0.7-1.5,1.1c-0.6,0.4-1.2,0.8-1.9,1.2c-0.7,0.4-1.3,0.8-2,1.2
	c-0.6,0.4-1.3,0.7-1.8,1c-0.6,0.3-1.1,0.5-1.5,0.6c-0.4,0.1-0.8,0.2-1,0.2c-0.2,0-0.3,0-0.3-0.1c-0.1-0.1-0.1-0.2-0.1-0.4
	c0-0.3,0.1-0.6,0.2-1c0.2-0.4,0.4-0.8,0.6-1.1c0.4-0.6,0.8-1.2,1.3-1.7c0.5-0.5,0.9-1,1.4-1.3c0.4-0.3,0.8-0.6,1.1-0.8
	c0,0,0.1,0,0.1,0c0,0,0,0,0,0c-0.1,0.3-0.3,0.5-0.4,0.8c-0.2,0.3-0.4,0.6-0.5,0.8c-0.2,0.2-0.3,0.3-0.3,0.4
	c-0.2,0.2-0.3,0.4-0.3,0.5c0,0.1,0,0.3,0.1,0.4c0.1,0.1,0.2,0.2,0.4,0.2l0.1,0c0.3-0.1,0.6-0.2,0.9-0.4c0.3-0.2,0.6-0.4,0.8-0.6
	c0.2-0.2,0.5-0.5,0.6-0.7c0.2-0.3,0.3-0.5,0.4-0.7c0.2-0.7,0.1-1.3-0.3-1.7c-0.4-0.4-0.9-0.6-1.5-0.6c-0.3,0-0.5,0-0.8,0.1
	c-0.3,0.1-0.7,0.3-1.1,0.6c-0.4,0.3-0.8,0.6-1.2,1c-0.4,0.4-0.8,0.8-1.2,1.2c-0.4,0.5-0.7,0.9-1,1.4c-0.3,0.5-0.6,1-0.8,1.5
	c-0.2,0.5-0.3,1-0.3,1.5c0,0.4,0.1,0.7,0.2,1.1c0.2,0.3,0.4,0.6,0.6,0.8c0.3,0.2,0.5,0.4,0.9,0.5
	C159.3,374.4,159.6,374.4,159.9,374.4 M167,374.9c0.2,0,0.5-0.1,0.6-0.6c0.2-0.4,0.5-0.8,0.9-1.3c0.4-0.5,0.9-1,1.4-1.6
	c0.5-0.5,1.1-1.1,1.6-1.6c0.6-0.5,1.1-1,1.6-1.4c0.5-0.4,1-0.8,1.4-1c0.1-0.1,0.2-0.1,0.2-0.2c-0.1,0.2-0.1,0.5-0.2,0.7
	c-0.1,0.4-0.2,0.9-0.3,1.3c-0.1,0.5-0.2,0.9-0.2,1.3c0,0.3,0,0.6,0.1,0.8c0.1,0.3,0.2,0.5,0.4,0.8c0.2,0.2,0.4,0.4,0.6,0.6
	c0.2,0.1,0.5,0.2,0.8,0.3c0,0,0.1,0,0.1,0c0.4,0,0.8-0.1,1.2-0.3c0.5-0.2,1-0.5,1.6-0.9c0.5-0.4,1.1-0.8,1.7-1.2
	c0.6-0.5,1.1-0.9,1.5-1.3c0.5-0.4,0.9-0.8,1.2-1.2c0.3-0.4,0.6-0.7,0.7-0.8c0.1-0.1,0.1-0.2,0.1-0.3c0-0.2-0.1-0.4-0.3-0.5l-0.1-0.1
	h-0.1c-0.1,0-0.2,0-0.3,0.1c-0.1,0-0.3,0.1-0.5,0.3c-0.3,0.3-0.7,0.6-1.2,0.9c-0.5,0.3-0.9,0.7-1.4,1c-0.5,0.3-1,0.6-1.5,1
	c-0.5,0.3-1,0.6-1.4,0.8c-0.4,0.2-0.8,0.4-1,0.5c-0.1,0-0.2,0.1-0.2,0.1c0,0,0-0.1,0-0.1c0-0.3,0.1-0.7,0.2-1
	c0.1-0.4,0.2-0.8,0.4-1.3c0.1-0.4,0.3-0.8,0.3-1.1c0.1-0.6,0.1-1.1-0.3-1.5c-0.3-0.4-0.8-0.7-1.3-0.7c-0.3,0-0.7,0.1-1.3,0.4
	c-0.5,0.2-1,0.5-1.5,0.9c-0.3,0.2-0.6,0.4-1,0.7c0.5-0.8,1-1.7,1.4-2.5c0.8-1.3,1.6-2.6,2.3-3.7c0.7-1.1,1.4-2.1,2-2.9
	c0.5-0.7,0.9-1.2,1.3-1.7l0.1,0c0.4-0.1,0.7-0.2,0.8-0.4c0.1-0.2,0.1-0.3,0.1-0.5l0,0l0,0c-0.3-0.5-0.7-0.7-1.2-0.7
	c-0.3,0-0.6,0.1-0.9,0.3c-0.2,0.2-0.4,0.3-0.6,0.5c-0.5,0.6-1.1,1.4-1.8,2.3c-0.7,0.9-1.4,2-2.1,3.2c-0.7,1.1-1.5,2.3-2.2,3.6
	c-0.7,1.2-1.4,2.4-2.1,3.5c-0.6,1.1-1.2,2.1-1.7,3c-0.5,0.9-0.9,1.6-1.1,2.1c-0.2,0.3-0.2,0.6-0.1,0.9c0.1,0.3,0.2,0.5,0.3,0.6
	C166.5,374.8,166.7,374.9,167,374.9L167,374.9z M187.9,373.5c0.4,0,0.9-0.1,1.4-0.4c0.6-0.3,1.2-0.7,1.8-1.1
	c0.6-0.4,1.2-0.9,1.8-1.5c0.6-0.5,1.1-1,1.6-1.5c0.5-0.5,0.8-0.9,1.1-1.3c0.3-0.4,0.4-0.6,0.3-0.8l-0.1-0.2l-0.1-0.1
	c-0.1-0.1-0.2-0.1-0.3-0.1c-0.1,0-0.2,0-0.2,0c-0.1,0-0.2,0.1-0.3,0.2l-1,0.8c-0.4,0.3-0.9,0.7-1.5,1.1c-0.6,0.4-1.1,0.8-1.7,1.3
	c-0.6,0.4-1.2,0.8-1.7,1.1c-0.5,0.3-0.9,0.5-1.3,0.6c-0.1,0-0.2,0.1-0.2,0.1c0,0,0,0,0,0c0,0,0-0.1,0-0.3c0.1-0.8,0.3-1.6,0.8-2.2
	c0.4-0.7,0.9-1.3,1.5-1.9c0.2-0.2,0.2-0.5,0-0.8c-0.1-0.2-0.2-0.3-0.3-0.4c-0.2-0.1-0.3-0.2-0.5-0.3c-0.1,0-0.1,0-0.2,0
	c-0.2,0-0.4,0.1-0.6,0.2c0,0,0,0-0.1,0.1c-0.4-0.6-1-0.9-1.7-0.9c-0.1,0-0.1,0-0.2,0c-0.4,0-0.9,0.1-1.3,0.3c-0.5,0.2-1,0.5-1.5,0.8
	c-0.5,0.3-0.9,0.8-1.3,1.2c-0.4,0.4-0.8,0.9-1.1,1.4c-0.3,0.5-0.6,1-0.8,1.5c-0.2,0.5-0.3,1-0.3,1.4c0,0.3,0.1,0.6,0.2,0.8
	c0.1,0.2,0.3,0.4,0.6,0.6c0.2,0.1,0.5,0.2,0.8,0.3c0.1,0,0.1,0,0.2,0c0.2,0,0.4,0,0.6-0.1c0.3-0.1,0.7-0.3,1-0.6
	c0.4-0.3,0.7-0.5,1.1-0.8c0.4-0.3,0.7-0.6,1.1-0.9c0,0,0.1-0.1,0.1-0.1c0,0.1,0,0.2,0,0.4c0,0.3,0.1,0.5,0.2,0.8
	c0.1,0.3,0.3,0.5,0.4,0.7c0.2,0.2,0.4,0.4,0.6,0.6c0.3,0.1,0.5,0.2,0.8,0.3C187.7,373.5,187.8,373.5,187.9,373.5 M186.5,366.9
	c0.2,0,0.2,0.1,0.2,0.1c0,0,0.1,0.1,0.1,0.1c0,0.1-0.1,0.3-0.2,0.3c-0.8,0.7-1.4,1.2-2,1.7c-0.5,0.5-1,0.9-1.4,1.2
	c-0.4,0.3-0.7,0.6-1,0.8c0,0,0,0,0,0c0,0,0-0.1,0-0.1c0.1-0.4,0.3-0.7,0.5-1.1c0.2-0.3,0.4-0.7,0.7-1c0.2-0.3,0.5-0.6,0.7-0.8
	c0.4-0.4,0.9-0.7,1.3-0.9C185.9,367,186.2,366.9,186.5,366.9 M192.6,381.1L192.6,381.1c0.4,0,0.6-0.2,0.7-0.4c0.1-0.1,0.2-0.4,0-0.7
	c0,0,0,0,0,0l0.2-0.6c0.1-0.3,0.2-0.7,0.4-1c0.1-0.4,0.3-0.7,0.5-1.1c0.4-0.9,0.9-1.9,1.4-2.9c0.6-1.1,1.2-2.2,1.8-3.4
	c0.4-0.7,0.8-1.6,1.4-2.5c0.5-1,1.1-1.9,1.7-2.9c0.6-1,1.2-1.9,1.7-2.9c0.5-0.8,1-1.6,1.4-2.2l2.4-0.2c0.9-0.1,1.7-0.2,2.5-0.2
	c0.8-0.1,1.7-0.1,2.5-0.1l0.4,0c0.6,0,1.2,0,1.8,0.1c0,0.1,0.2,0.3,0.3,0.3c0.1,0,0.2,0.1,0.4,0.1l0.1,0c0.1,0,0.2,0,0.3,0
	c0.2,0,0.3-0.1,0.4-0.2c0.2-0.1,0.3-0.2,0.3-0.4c0.1-0.2,0.1-0.5-0.1-0.7c-0.1-0.2-0.3-0.3-0.6-0.5c-0.4-0.1-0.8-0.2-1.3-0.3
	c-0.5,0-1-0.1-1.5-0.1l-0.5,0c-0.4,0-0.7,0-1.1,0c-0.5,0-1,0-1.4,0.1c-0.7,0-1.4,0.1-2.2,0.1c-0.5,0-1,0.1-1.5,0.1l0.2-0.2
	c0.2-0.3,0.4-0.6,0.6-0.9c0.2-0.3,0.4-0.6,0.6-0.9c0.2-0.3,0.4-0.5,0.5-0.7c0.1-0.1,0.2-0.3,0.1-0.6c-0.1-0.2-0.1-0.3-0.3-0.5
	c-0.1-0.2-0.3-0.3-0.5-0.3c-0.1,0-0.2-0.1-0.3-0.1c-0.2,0-0.3,0-0.5,0.2c-0.2,0.2-0.5,0.5-0.7,0.8c-0.3,0.3-0.5,0.7-0.8,1.1
	c-0.3,0.4-0.5,0.8-0.8,1.2c-0.2,0.4-0.5,0.7-0.7,1.1c-1.2,0.1-2.3,0.3-3.2,0.4c-1,0.1-2,0.3-3,0.4c-0.2,0-0.4,0.1-0.6,0.4
	c-0.1,0.2-0.2,0.4-0.2,0.5c0,0.2,0,0.4,0.1,0.5c0.1,0.2,0.3,0.4,0.5,0.4l0.1,0c0.8-0.1,1.7-0.3,2.7-0.4c0.7-0.1,1.5-0.2,2.2-0.3
	c-0.3,0.5-0.7,1-1,1.6c-0.5,0.9-1.1,1.8-1.6,2.7c-0.5,0.9-1.1,1.8-1.6,2.7c-0.5,0.9-0.9,1.6-1.3,2.3c-0.3,0.6-0.6,1.1-0.8,1.6
	c-0.2,0.4-0.5,0.9-0.6,1.3c-0.2,0.4-0.4,0.8-0.6,1.1c-0.2,0.4-0.4,0.8-0.6,1.2c-0.1,0.1-0.2,0.4-0.3,0.8c-0.2,0.4-0.3,0.8-0.5,1.2
	c-0.2,0.5-0.3,0.9-0.4,1.4c-0.1,0.5-0.2,0.9-0.2,1.3c0,0.3,0.1,0.6,0.2,0.8C191.9,380.8,192.1,381,192.6,381.1L192.6,381.1z
	 M215.4,381.1L215.4,381.1c0.4,0,0.6-0.2,0.7-0.4c0.1-0.1,0.2-0.4,0-0.7c0,0,0,0,0,0l0.2-0.6c0.1-0.3,0.2-0.7,0.4-1
	c0.1-0.4,0.3-0.7,0.5-1.1c0.4-0.9,0.9-1.9,1.4-2.9c0.5-1.1,1.2-2.2,1.8-3.4c0.4-0.7,0.8-1.6,1.4-2.5c0.5-1,1.1-1.9,1.7-2.9
	c0.6-1,1.2-1.9,1.7-2.9c0.5-0.8,1-1.6,1.4-2.2l2.4-0.2c0.9-0.1,1.7-0.2,2.5-0.2c0.8-0.1,1.7-0.1,2.5-0.1l0.4,0c0.6,0,1.2,0,1.8,0.1
	c0,0.1,0.2,0.3,0.3,0.3c0.1,0,0.2,0.1,0.4,0.1l0.1,0c0.1,0,0.2,0,0.3,0c0.2,0,0.3-0.1,0.4-0.2c0.2-0.1,0.3-0.2,0.3-0.4
	c0.1-0.2,0.1-0.5-0.1-0.7c-0.1-0.2-0.3-0.3-0.6-0.5c-0.4-0.1-0.8-0.2-1.3-0.3c-0.5,0-1-0.1-1.5-0.1l-0.5,0c-0.4,0-0.7,0-1.1,0
	c-0.5,0-1,0-1.4,0.1c-0.7,0-1.4,0.1-2.2,0.1c-0.5,0-1,0.1-1.5,0.1l0.2-0.2c0.2-0.3,0.4-0.6,0.6-0.9c0.2-0.3,0.4-0.6,0.6-0.9
	c0.2-0.3,0.4-0.5,0.5-0.7c0.1-0.1,0.2-0.3,0.1-0.6c-0.1-0.2-0.1-0.3-0.3-0.5c-0.1-0.2-0.3-0.3-0.5-0.3c-0.1,0-0.2-0.1-0.3-0.1
	c-0.2,0-0.3,0-0.5,0.2c-0.2,0.2-0.5,0.5-0.7,0.8c-0.3,0.3-0.5,0.7-0.8,1.1c-0.3,0.4-0.6,0.8-0.8,1.2c-0.2,0.4-0.5,0.7-0.7,1.1
	c-1.2,0.1-2.3,0.3-3.2,0.4c-1,0.1-2,0.3-3,0.4c-0.2,0-0.4,0.1-0.6,0.4c-0.1,0.2-0.2,0.4-0.2,0.5c0,0.2,0,0.4,0.1,0.5
	c0.1,0.2,0.3,0.4,0.5,0.4l0.1,0c0.8-0.1,1.7-0.3,2.7-0.4c0.7-0.1,1.5-0.2,2.2-0.3c-0.3,0.5-0.7,1-1,1.6c-0.5,0.9-1.1,1.8-1.6,2.7
	c-0.5,0.9-1.1,1.8-1.6,2.7c-0.5,0.9-0.9,1.6-1.3,2.3c-0.3,0.6-0.6,1.1-0.8,1.6c-0.2,0.4-0.5,0.9-0.6,1.3c-0.2,0.4-0.4,0.8-0.6,1.1
	c-0.2,0.4-0.4,0.8-0.6,1.2c-0.1,0.1-0.2,0.4-0.3,0.8c-0.2,0.4-0.3,0.8-0.5,1.2c-0.2,0.5-0.3,0.9-0.4,1.4c-0.1,0.5-0.2,0.9-0.2,1.3
	c0,0.3,0.1,0.6,0.2,0.8C214.8,380.8,215,381,215.4,381.1L215.4,381.1z M225.8,373.9c0.4,0,0.9-0.1,1.4-0.4c0.5-0.2,1.1-0.5,1.6-0.8
	c0.6-0.3,1.1-0.7,1.7-1.1c0.6-0.4,1.1-0.8,1.7-1.2c0.5-0.4,1-0.8,1.4-1.2c0.4-0.4,0.7-0.7,0.9-0.9c0.1-0.1,0.3-0.3,0.4-0.5
	c0.1-0.2,0.2-0.3,0.3-0.5c0.1-0.2,0.1-0.3,0.2-0.5c0-0.3-0.1-0.5-0.4-0.6c0,0-0.1,0-0.1,0c-0.1,0-0.3,0-0.4,0.1
	c-0.1,0.1-0.2,0.1-0.2,0.2c-0.4,0.4-0.9,0.8-1.5,1.3c-0.6,0.4-1.2,0.9-1.8,1.3c-0.6,0.4-1.3,0.9-1.9,1.2c-0.6,0.4-1.2,0.7-1.7,1
	c-0.5,0.3-1,0.5-1.3,0.6c-0.2,0.1-0.3,0.1-0.4,0.1c0,0,0-0.1,0-0.1c0.1-0.3,0.3-0.7,0.5-1.1c0.2-0.4,0.5-0.9,0.8-1.4
	c0.3-0.5,0.6-1,0.9-1.4c0.3-0.5,0.5-0.8,0.8-1.2l0.5-0.7l0,0c0.1-0.2,0.1-0.4,0-0.6c-0.1-0.2-0.2-0.3-0.3-0.4
	c-0.2-0.2-0.5-0.3-0.7-0.3c0,0-0.1,0-0.1,0c-0.3,0-0.6,0.2-0.7,0.5l-1,1.4c-0.3,0.5-0.7,1-1,1.5c-0.3,0.5-0.6,1-0.8,1.4
	c-0.2,0.5-0.4,0.9-0.6,1.4c-0.1,0.3-0.1,0.6-0.1,0.8c0,0.6,0.2,1.1,0.6,1.5C224.7,373.7,225.2,373.9,225.8,373.9L225.8,373.9z
	 M229.3,364.8c0.2,0,0.3,0,0.5-0.1c0.2-0.1,0.5-0.3,0.7-0.5c0.2-0.2,0.4-0.4,0.6-0.6c0.2-0.3,0.3-0.5,0.3-0.8c0-0.3-0.1-0.6-0.3-0.8
	c-0.2-0.2-0.5-0.3-0.8-0.3c-0.2,0-0.4,0-0.5,0.1c-0.2,0.1-0.3,0.3-0.4,0.5c-0.1,0.2-0.2,0.4-0.4,0.7c-0.2,0.2-0.3,0.4-0.5,0.5l0,0
	l0,0c-0.1,0.2-0.1,0.3-0.1,0.4c0,0.2,0.1,0.3,0.5,0.6l0.1,0l0.2,0.1C229.1,364.7,229.2,364.8,229.3,364.8 M231.5,374.3
	c0.1,0,0.1,0,0.2,0c0.2,0,0.4-0.2,0.6-0.6c0.2-0.3,0.5-0.7,0.9-1.1c0.4-0.5,0.8-0.9,1.3-1.4c0.4-0.5,0.9-0.9,1.4-1.3
	c0.5-0.4,0.9-0.8,1.3-1.1c0.4-0.3,0.8-0.5,1.1-0.7c0.1-0.1,0.2-0.1,0.3-0.1c0,0,0,0,0,0c0,0.2-0.1,0.5-0.1,0.8
	c-0.1,0.3-0.1,0.7-0.2,1c-0.1,0.4-0.1,0.7-0.1,1.1c0,0.6,0.3,1.1,0.7,1.5c0.4,0.4,0.9,0.6,1.4,0.6l0.1,0c0.4,0,0.9-0.1,1.3-0.3
	c0.5-0.2,1-0.5,1.5-0.8c0.5-0.3,1-0.7,1.5-1.1c0.5-0.4,0.9-0.8,1.3-1.2c0.4-0.4,0.7-0.8,0.9-1.1c0.3-0.4,0.4-0.8,0.3-1.1
	c-0.1-0.3-0.3-0.4-0.5-0.4c-0.1,0-0.2,0-0.2,0c-0.2,0.1-0.4,0.2-0.5,0.3c-0.4,0.4-0.9,0.8-1.4,1.2c-0.5,0.4-1,0.8-1.5,1.1
	c-0.5,0.3-1,0.6-1.5,0.9c-0.5,0.2-0.8,0.4-1.1,0.5c-0.1,0-0.2,0.1-0.3,0.1c0,0,0-0.1,0-0.1c0-0.3,0.1-0.6,0.1-0.9
	c0.1-0.4,0.1-0.7,0.2-1.1c0.1-0.4,0.1-0.7,0.1-0.9c-0.1-0.5-0.3-0.9-0.6-1.2c-0.3-0.3-0.7-0.5-1.2-0.5c-0.1,0-0.2,0-0.3,0
	c-0.3,0-0.6,0.1-0.9,0.2c-0.4,0.1-0.8,0.3-1.2,0.6c-0.3,0.2-0.6,0.4-0.8,0.5c0,0,0-0.1,0-0.1c0.2-0.3,0.4-0.7,0.6-1.2
	c0.1-0.2,0-0.5-0.1-0.7c-0.1-0.2-0.3-0.3-0.4-0.4c-0.2-0.1-0.3-0.2-0.5-0.2l-0.1,0h0c-0.2,0-0.4,0.1-0.5,0.3l-2.1,3.9
	c0,0-1,1.8-1.2,2.3c-0.2,0.5-0.5,0.9-0.7,1.3c-0.1,0.3-0.2,0.6,0,0.8c0.1,0.2,0.3,0.4,0.5,0.5C231.2,374.2,231.3,374.3,231.5,374.3
	 M243.5,374.9c0.2,0,0.5-0.1,0.6-0.6c0.2-0.4,0.5-0.8,0.9-1.3c0.4-0.5,0.9-1,1.4-1.6c0.5-0.5,1.1-1.1,1.6-1.6c0.6-0.5,1.1-1,1.6-1.4
	c0.5-0.4,1-0.8,1.4-1c0.1-0.1,0.2-0.1,0.2-0.2c-0.1,0.2-0.1,0.5-0.2,0.7c-0.1,0.4-0.2,0.9-0.3,1.3c-0.1,0.5-0.2,0.9-0.2,1.3
	c0,0.3,0,0.6,0.1,0.8c0.1,0.3,0.2,0.5,0.4,0.8c0.2,0.2,0.4,0.4,0.6,0.6c0.2,0.1,0.5,0.2,0.8,0.3c0,0,0.1,0,0.1,0
	c0.4,0,0.8-0.1,1.2-0.3c0.5-0.2,1-0.5,1.6-0.9c0.5-0.4,1.1-0.8,1.7-1.2c0.6-0.5,1.1-0.9,1.5-1.3c0.5-0.4,0.9-0.8,1.2-1.2
	c0.3-0.4,0.6-0.7,0.7-0.8c0.1-0.1,0.1-0.2,0.1-0.3c0-0.2-0.1-0.4-0.3-0.5l-0.1-0.1h-0.1c-0.1,0-0.2,0-0.3,0.1
	c-0.1,0-0.3,0.1-0.5,0.3c-0.3,0.3-0.7,0.6-1.2,0.9c-0.5,0.3-0.9,0.7-1.4,1c-0.5,0.3-1,0.6-1.5,1c-0.5,0.3-1,0.6-1.4,0.8
	c-0.4,0.2-0.8,0.4-1,0.5c-0.1,0-0.2,0.1-0.2,0.1c0,0,0-0.1,0-0.1c0-0.3,0.1-0.7,0.2-1c0.1-0.4,0.2-0.8,0.4-1.3
	c0.1-0.4,0.3-0.8,0.3-1.1c0.1-0.6,0.1-1.1-0.3-1.5c-0.3-0.4-0.8-0.7-1.3-0.7c-0.3,0-0.7,0.1-1.3,0.4c-0.5,0.2-1,0.5-1.5,0.9
	c-0.3,0.2-0.6,0.4-1,0.7c0.5-0.8,1-1.7,1.4-2.5c0.8-1.3,1.6-2.6,2.3-3.7c0.7-1.1,1.4-2.1,2-2.9c0.5-0.7,0.9-1.2,1.3-1.7l0.1,0
	c0.4-0.1,0.7-0.2,0.8-0.4c0.1-0.2,0.1-0.3,0.1-0.5l0,0l0,0c-0.3-0.5-0.7-0.7-1.2-0.7c-0.3,0-0.6,0.1-0.8,0.3
	c-0.2,0.2-0.4,0.3-0.6,0.5c-0.5,0.6-1.1,1.4-1.8,2.3c-0.7,0.9-1.4,2-2.1,3.2c-0.7,1.1-1.5,2.3-2.2,3.6c-0.7,1.2-1.4,2.4-2.1,3.5
	c-0.6,1.1-1.2,2.1-1.7,3c-0.5,0.9-0.9,1.6-1.1,2.1c-0.2,0.3-0.2,0.6-0.1,0.9c0.1,0.3,0.2,0.5,0.3,0.6
	C243,374.8,243.2,374.9,243.5,374.9L243.5,374.9z M266.9,374.9c0.2,0,0.5-0.1,0.6-0.6c0.2-0.4,0.6-0.8,0.9-1.3
	c0.4-0.5,0.9-1,1.4-1.6c0.5-0.5,1.1-1.1,1.6-1.6c0.6-0.5,1.1-1,1.6-1.4c0.5-0.4,1-0.8,1.4-1c0.1-0.1,0.2-0.1,0.2-0.2
	c-0.1,0.2-0.1,0.5-0.2,0.7c-0.1,0.4-0.2,0.9-0.3,1.3c-0.1,0.5-0.2,0.9-0.2,1.3c0,0.3,0,0.6,0.1,0.8c0.1,0.3,0.2,0.5,0.4,0.8
	c0.2,0.2,0.4,0.4,0.6,0.6c0.2,0.1,0.5,0.2,0.8,0.3c0,0,0.1,0,0.1,0c0.4,0,0.8-0.1,1.2-0.3c0.5-0.2,1-0.5,1.6-0.9
	c0.5-0.4,1.1-0.8,1.7-1.2c0.6-0.5,1.1-0.9,1.5-1.3c0.5-0.4,0.9-0.8,1.2-1.2c0.3-0.4,0.6-0.7,0.7-0.8c0.1-0.1,0.1-0.2,0.1-0.3
	c0-0.2-0.1-0.4-0.3-0.5l-0.1-0.1h-0.1c-0.1,0-0.2,0-0.3,0.1c-0.1,0-0.3,0.1-0.5,0.3c-0.3,0.3-0.7,0.6-1.2,0.9
	c-0.5,0.3-0.9,0.7-1.4,1c-0.5,0.3-1,0.6-1.5,1c-0.5,0.3-1,0.6-1.4,0.8c-0.4,0.2-0.8,0.4-1,0.5c-0.1,0-0.2,0.1-0.2,0.1
	c0,0,0-0.1,0-0.1c0-0.3,0.1-0.7,0.2-1c0.1-0.4,0.2-0.8,0.4-1.3c0.1-0.4,0.3-0.8,0.4-1.1c0.1-0.6,0-1.1-0.3-1.5
	c-0.3-0.4-0.8-0.7-1.3-0.7c-0.3,0-0.7,0.1-1.3,0.4c-0.5,0.2-1,0.5-1.5,0.9c-0.3,0.2-0.6,0.4-1,0.7c0.5-0.8,1-1.7,1.4-2.5
	c0.8-1.3,1.6-2.6,2.3-3.7c0.7-1.1,1.4-2.1,2-2.9c0.5-0.7,0.9-1.2,1.3-1.7l0.1,0c0.4-0.1,0.7-0.2,0.8-0.4c0.1-0.2,0.1-0.3,0.1-0.5
	l0,0l0,0c-0.3-0.5-0.7-0.7-1.2-0.7c-0.3,0-0.6,0.1-0.9,0.3c-0.2,0.2-0.4,0.3-0.6,0.5c-0.5,0.6-1.1,1.4-1.8,2.3
	c-0.7,0.9-1.4,2-2.1,3.2c-0.7,1.1-1.5,2.3-2.2,3.6c-0.7,1.2-1.4,2.4-2.1,3.5c-0.6,1.1-1.2,2.1-1.7,3c-0.5,0.9-0.9,1.6-1.1,2.1
	c-0.2,0.3-0.2,0.6-0.1,0.9c0.1,0.3,0.2,0.5,0.3,0.6C266.4,374.8,266.6,374.9,266.9,374.9L266.9,374.9z M282.2,373.8
	c0.5,0,0.9-0.1,1.4-0.4c0.4-0.2,0.8-0.5,1.1-0.8c0.3-0.3,0.6-0.7,0.9-1.1c0.3-0.4,0.5-0.8,0.6-1.1c0.4-0.9,0.6-1.8,0.6-2.7
	c0-0.2,0-0.4,0-0.7c0,0,0-0.1,0-0.1c0.5,0.2,1.1,0.3,1.7,0.5c0.9,0.2,1.7,0.3,2.6,0.3c0.3,0,0.5,0,0.8,0c0.2,0,0.5,0,0.7-0.1
	c0.4-0.1,0.7-0.2,1-0.4c0.3-0.3,0.3-0.6,0.2-0.7c0-0.1-0.2-0.3-0.4-0.4c-0.1-0.1-0.3-0.1-0.4-0.1c0,0-0.1,0-0.1,0
	c-0.2,0-0.4,0.1-0.5,0.2c-0.1,0-0.3,0.1-0.4,0.1c-0.2,0-0.4,0-0.6,0c-0.4,0-0.9-0.1-1.4-0.2c-0.5-0.1-1-0.2-1.4-0.4
	c-0.5-0.2-0.9-0.3-1.3-0.5c-0.4-0.2-0.8-0.3-1-0.5l0,0l0,0c-0.2,0-0.4-0.1-0.6-0.1l-0.1,0c-0.3,0-0.5,0.1-0.8,0.2
	c-0.6,0.3-1.1,0.7-1.7,1.2c-0.5,0.5-1,1.1-1.4,1.7c-0.4,0.6-0.8,1.3-1,1.9c-0.3,0.7-0.4,1.3-0.4,1.9c0,0.3,0.1,0.6,0.2,0.9
	c0.1,0.3,0.3,0.5,0.5,0.7c0.2,0.2,0.4,0.4,0.7,0.5C281.6,373.8,281.9,373.8,282.2,373.8 M284.6,367c0.1,0,0.1-0.1,0.2-0.1
	c0,0.2,0,0.3,0,0.5c0,0.8-0.1,1.6-0.4,2.3c-0.1,0.2-0.2,0.5-0.4,0.8c-0.2,0.3-0.4,0.6-0.6,0.9c-0.2,0.3-0.4,0.5-0.7,0.7
	c-0.2,0.1-0.4,0.2-0.5,0.3c0,0,0-0.1,0-0.3c0-0.2,0-0.4,0.1-0.6c0-0.2,0.1-0.5,0.2-0.7c0.1-0.2,0.1-0.4,0.2-0.6
	c0.1-0.2,0.2-0.3,0.2-0.5c0.2-0.3,0.3-0.7,0.5-1c0.2-0.3,0.4-0.6,0.6-0.9C284.1,367.5,284.3,367.3,284.6,367 M296.3,373.5
	c0.4,0,0.9-0.1,1.4-0.4c0.6-0.3,1.2-0.7,1.8-1.1c0.6-0.4,1.2-0.9,1.8-1.5c0.6-0.5,1.1-1,1.6-1.5c0.5-0.5,0.8-0.9,1.1-1.3
	c0.3-0.4,0.4-0.6,0.3-0.8l-0.1-0.2l-0.1-0.1c-0.1-0.1-0.2-0.1-0.3-0.1c-0.1,0-0.2,0-0.2,0c-0.1,0-0.2,0.1-0.3,0.2l-1,0.8
	c-0.4,0.3-0.9,0.7-1.5,1.1c-0.6,0.4-1.1,0.8-1.7,1.3c-0.6,0.4-1.2,0.8-1.7,1.1c-0.5,0.3-0.9,0.5-1.3,0.6c-0.1,0-0.2,0.1-0.2,0.1
	c0,0,0,0,0,0c0,0,0-0.1,0-0.3c0.1-0.8,0.3-1.6,0.8-2.2c0.4-0.7,0.9-1.3,1.5-1.9c0.2-0.2,0.2-0.5,0-0.8c-0.1-0.2-0.2-0.3-0.3-0.4
	c-0.2-0.1-0.3-0.2-0.5-0.3c-0.1,0-0.1,0-0.2,0c-0.2,0-0.4,0.1-0.6,0.2c0,0,0,0-0.1,0.1c-0.4-0.6-1-0.9-1.7-0.9c-0.1,0-0.1,0-0.2,0
	c-0.4,0-0.9,0.1-1.3,0.3c-0.5,0.2-1,0.5-1.5,0.8c-0.5,0.3-0.9,0.8-1.3,1.2c-0.4,0.4-0.8,0.9-1.1,1.4c-0.3,0.5-0.6,1-0.8,1.5
	c-0.2,0.5-0.3,1-0.3,1.4c0,0.3,0.1,0.6,0.2,0.8c0.1,0.2,0.3,0.4,0.6,0.6c0.2,0.1,0.5,0.2,0.8,0.3c0.1,0,0.1,0,0.2,0
	c0.2,0,0.4,0,0.6-0.1c0.3-0.1,0.7-0.3,1-0.6c0.4-0.3,0.7-0.5,1.1-0.8c0.4-0.3,0.7-0.6,1.1-0.9c0,0,0.1-0.1,0.1-0.1
	c0,0.1,0,0.2,0,0.4c0,0.3,0.1,0.5,0.2,0.8c0.1,0.3,0.3,0.5,0.4,0.7c0.2,0.2,0.4,0.4,0.6,0.6c0.3,0.1,0.5,0.2,0.8,0.3
	C296.2,373.5,296.3,373.5,296.3,373.5 M295,366.9c0.2,0,0.2,0.1,0.2,0.1c0,0,0.1,0.1,0.1,0.1c0,0.1-0.1,0.3-0.2,0.3
	c-0.8,0.7-1.4,1.2-2,1.7c-0.5,0.5-1,0.9-1.4,1.2c-0.4,0.3-0.7,0.6-1,0.8c0,0,0,0,0,0c0,0,0-0.1,0-0.1c0.1-0.4,0.3-0.7,0.5-1.1
	c0.2-0.3,0.4-0.7,0.7-1c0.2-0.3,0.5-0.6,0.7-0.8c0.4-0.4,0.9-0.7,1.3-0.9C294.4,367,294.7,366.9,295,366.9 M341.2,379.6
	c0.2,0,0.4-0.1,0.5-0.4l0,0c0.4-0.6,1-1.3,1.6-2.2c0.6-0.9,1.3-1.8,2.1-2.7c0.7-1,1.5-1.9,2.3-3c0.8-1,1.6-2,2.3-2.9
	c0.7-0.9,1.4-1.8,2.1-2.7l1.7-2.1c0,0,3.4-4.1,4.1-4.9c0.7-0.8,1.4-1.6,2-2.4c0.7-0.7,1.3-1.4,1.9-2.1c0.6-0.6,1.2-1.1,1.7-1.6
	c0.5-0.4,0.9-0.6,1.2-0.8c0.1,0,0.2,0,0.3,0c0.1,0,0.3,0,0.4-0.1c0.1-0.1,0.2-0.1,0.3-0.2c0.1-0.1,0.2-0.3,0.2-0.5
	c0-0.2-0.1-0.4-0.4-0.6c-0.3-0.2-0.5-0.3-0.8-0.3c-0.4,0-0.8,0.1-1.2,0.4c-0.4,0.2-0.7,0.5-1,0.7c-0.6,0.5-1.3,1.1-2.1,1.9
	c-0.8,0.8-1.7,1.7-2.5,2.7c-0.9,1-1.8,2-2.7,3.1c-0.9,1.1-1.9,2.2-2.8,3.3c-0.4,0.4-0.8,1-1.3,1.6c-0.5,0.6-1,1.3-1.6,2
	c-0.6,0.7-1.2,1.5-1.8,2.3c-0.6,0.8-1.3,1.6-1.9,2.4c-0.6,0.8-1.2,1.6-1.8,2.4c-0.2,0.2-0.3,0.4-0.5,0.6c0.1-0.5,0.2-0.9,0.4-1.4
	c0.3-1.2,0.6-2.4,0.8-3.6c0.2-1.2,0.4-2.5,0.5-3.7c0.1-1.2,0.2-2.4,0.2-3.6c0-0.8,0-1.6-0.1-2.3c-0.1-0.7-0.2-1.5-0.4-2.1
	c-0.1-0.3-0.2-0.5-0.4-0.8c-0.2-0.3-0.4-0.5-0.6-0.7c-0.2-0.2-0.5-0.4-0.8-0.6c-0.3-0.1-0.6-0.2-1-0.2c-0.2,0-0.5,0-0.7,0.1
	c-0.2,0.1-0.4,0.2-0.5,0.4c-0.1,0.2-0.2,0.4,0,0.9c0.1,0.2,0.3,0.4,0.6,0.5c0.1,0,0.2,0.1,0.3,0.1c0.1,0,0.2,0,0.3,0
	c0.1,0,0.1,0,0.1,0c0,0,0.1,0,0.1,0c0.2,0,0.3,0.1,0.3,0.2c0.1,0.1,0.2,0.2,0.2,0.3c0.1,0.2,0.2,0.3,0.2,0.5c0.1,0.5,0.2,1,0.3,1.5
	c0.1,0.5,0.1,1.1,0.1,1.7c0,0.9-0.1,2-0.2,3c-0.1,1.1-0.3,2.1-0.5,3.2c-0.2,1.1-0.4,2.2-0.7,3.2c-0.3,1.1-0.5,2.1-0.8,3.1
	c-0.3,1-0.5,1.9-0.8,2.7c-0.3,0.8-0.5,1.5-0.7,2.1l0,0l0,0c0,0.2,0,0.4,0.1,0.6c0.1,0.2,0.2,0.3,0.3,0.5c0.1,0.1,0.3,0.3,0.4,0.4
	C340.9,379.6,341.1,379.6,341.2,379.6 M355.5,373.6c0.2,0,0.4,0,0.7-0.1c0.4-0.2,0.8-0.4,1.2-0.6c0.4-0.3,0.8-0.6,1.3-0.9
	c0.4-0.3,0.9-0.7,1.3-1c0.2-0.1,0.3-0.3,0.5-0.4c0,0.1,0,0.3,0,0.4c0,0.3,0,0.7,0.1,1c0.1,0.4,0.4,0.8,0.8,1.1
	c0.4,0.3,0.9,0.5,1.5,0.5c0.5,0,1-0.1,1.7-0.5c0.6-0.3,1.3-0.7,2-1.1c0.7-0.5,1.4-1,2.1-1.5c0.7-0.5,1.3-1.1,1.8-1.5
	c0.5-0.5,0.9-0.9,1.2-1.3c0.3-0.4,0.4-0.6,0.3-0.9c0-0.1-0.1-0.3-0.3-0.3c-0.1,0-0.2-0.1-0.3-0.1c-0.1,0-0.2,0-0.3,0
	c-0.1,0.1-0.3,0.1-0.4,0.2l-0.7,0.5l-0.9,0.7h0c-0.4,0.3-0.8,0.6-1.2,0.9c-0.7,0.5-1.4,1-2.1,1.4c-0.9,0.5-1.6,0.9-2.3,1.2
	c-0.6,0.3-0.9,0.4-1.1,0.4c0-0.1,0-0.3,0-0.5c0-0.2,0-0.4,0-0.6c0-0.2,0-0.3,0.1-0.4c0.1-0.3,0.2-0.6,0.3-1c0.2-0.4,0.3-0.8,0.5-1.2
	c0.2-0.4,0.4-0.7,0.6-1.1c0.2-0.3,0.3-0.5,0.5-0.6c0.1,0,0.2,0,0.3,0c0.3,0,0.5,0,0.8-0.1c0.4-0.1,0.7-0.3,0.9-0.4
	c0.2-0.2,0.4-0.4,0.6-0.6c0.2-0.2,0.3-0.4,0.3-0.6c0.1-0.4,0.1-0.7,0.1-1.1c0-0.3-0.2-0.6-0.3-0.9c-0.2-0.3-0.4-0.5-0.6-0.7
	c-0.2-0.2-0.5-0.3-0.8-0.4c-0.1,0-0.1,0-0.2,0c-0.1,0-0.4,0-0.6,0.3c-0.2,0.2-0.3,0.4-0.4,0.6c-0.1,0.2-0.1,0.5-0.1,0.7
	c0,0.4,0.3,0.6,0.6,0.6c0,0,0.1,0,0.1,0c0.1,0,0.1,0,0.2,0.1c0.1,0.1,0.2,0.1,0.2,0.2c0.1,0.1,0.1,0.2,0.1,0.4c0,0.1,0,0.2-0.1,0.3
	c-0.1,0.1-0.2,0.2-0.4,0.3c-0.1,0-0.3,0.1-0.5,0.1c-0.1,0-0.3,0-0.4,0c-0.2-0.1-0.4-0.1-0.5-0.1c-0.2,0-0.4,0.1-0.5,0.2l0,0l0,0
	c-0.4,0.6-0.8,1.2-1.3,1.7c-0.5,0.6-1,1.1-1.5,1.6c-0.5,0.5-1.1,1-1.6,1.4c-0.5,0.4-1,0.8-1.5,1.1c-0.5,0.3-0.9,0.5-1.2,0.7
	c-0.1,0.1-0.3,0.1-0.3,0.1c0.1-0.2,0.1-0.4,0.3-0.6c0.1-0.3,0.3-0.6,0.4-0.8c0.1-0.3,0.3-0.4,0.3-0.5c0.2-0.4,0.5-0.7,0.8-1.1
	c0.3-0.3,0.5-0.7,0.8-1c0.3-0.3,0.5-0.6,0.8-0.8c0.2-0.3,0.4-0.5,0.6-0.6c0.2-0.2,0.2-0.4,0.2-0.6c0-0.2-0.1-0.3-0.3-0.4
	c-0.1-0.1-0.3-0.2-0.4-0.2c-0.2-0.1-0.3-0.1-0.5-0.1c-0.3,0-0.5,0.1-0.7,0.3c-0.2,0.2-0.4,0.4-0.7,0.7c-0.3,0.3-0.5,0.6-0.8,0.9
	c-0.3,0.3-0.5,0.7-0.8,1c-0.3,0.3-0.5,0.7-0.7,1c-0.4,0.5-0.7,1.1-0.9,1.7c-0.3,0.6-0.3,1.2-0.3,1.8c0.1,0.4,0.3,0.8,0.6,1
	C354.7,373.4,355.1,373.6,355.5,373.6 M369,376.3c0.3,0,0.6-0.1,0.8-0.3c0.2-0.2,0.3-0.5,0.3-0.8c0-0.2,0-0.4-0.1-0.5
	c-0.1-0.2-0.2-0.3-0.4-0.4c-0.2-0.2-0.4-0.3-0.6-0.3c-0.1,0-0.3,0-0.4,0.1c-0.3,0.1-0.5,0.4-0.7,0.6c-0.1,0.3-0.2,0.6-0.1,0.9
	c0.1,0.3,0.3,0.6,1,0.6C368.9,376.3,369,376.3,369,376.3 M370.3,373.8c0.5,0,0.9-0.1,1.4-0.4c0.4-0.2,0.8-0.5,1.1-0.8
	c0.3-0.3,0.6-0.7,0.9-1.1c0.3-0.4,0.5-0.8,0.6-1.1c0.4-0.9,0.6-1.8,0.6-2.7c0-0.2,0-0.4,0-0.7c0,0,0-0.1,0-0.1
	c0.5,0.2,1.1,0.3,1.7,0.5c0.9,0.2,1.7,0.3,2.6,0.3c0.2,0,0.3,0,0.5,0c0.2,0,0.4,0,0.6-0.1c0.2,0,0.4-0.1,0.7-0.1
	c0.2-0.1,0.4-0.2,0.6-0.3c0.2-0.2,0.3-0.4,0.3-0.6c0-0.2-0.1-0.3-0.2-0.4c-0.2-0.2-0.4-0.2-0.7-0.2c-0.2,0-0.5,0.1-0.6,0.1
	c-0.1,0-0.3,0.1-0.5,0.1c-0.2,0-0.4,0-0.6,0c-0.5,0-1.1-0.1-1.7-0.2c-0.3-0.1-0.6-0.2-0.9-0.3c0.1-0.1,0.2-0.2,0.3-0.3
	c0.3-0.3,0.4-0.6,0.5-0.9c0.1-0.4,0.1-0.7,0.1-1.1c0-0.3-0.2-0.6-0.3-0.9c-0.2-0.3-0.4-0.5-0.6-0.7c-0.2-0.2-0.5-0.3-0.8-0.4
	c-0.1,0-0.1,0-0.2,0c-0.1,0-0.4,0-0.6,0.3c-0.2,0.2-0.3,0.4-0.4,0.6c-0.1,0.2-0.1,0.5-0.1,0.7c0,0.4,0.3,0.6,0.6,0.6
	c0,0,0.1,0,0.1,0c0.1,0,0.1,0,0.2,0.1c0.1,0.1,0.2,0.3,0.2,0.5c0,0.2-0.1,0.3-0.2,0.5c-0.1,0.2-0.4,0.2-0.9,0.2
	c-0.2,0-0.4,0-0.7-0.1c-0.1,0-0.2,0-0.3,0c-0.1,0-0.2,0-0.3,0c-0.2,0-0.5,0.1-0.7,0.2c-0.6,0.3-1.1,0.7-1.7,1.2
	c-0.5,0.5-1,1.1-1.4,1.7c-0.4,0.6-0.8,1.3-1,1.9c-0.3,0.7-0.4,1.3-0.4,1.9c0,0.3,0.1,0.6,0.2,0.9c0.1,0.3,0.3,0.5,0.5,0.7
	c0.2,0.2,0.4,0.4,0.7,0.5C369.7,373.8,370,373.8,370.3,373.8 M372.6,367c0.1,0,0.1-0.1,0.2-0.1c0,0.2,0,0.3,0,0.5
	c0,0.8-0.1,1.6-0.4,2.3c-0.1,0.2-0.2,0.5-0.4,0.8c-0.2,0.3-0.4,0.6-0.6,0.9c-0.2,0.3-0.4,0.5-0.7,0.7c-0.2,0.1-0.4,0.2-0.5,0.3
	c0,0,0-0.1,0-0.3c0-0.2,0-0.4,0.1-0.6c0-0.2,0.1-0.5,0.2-0.7c0.1-0.2,0.1-0.4,0.2-0.6c0.1-0.2,0.2-0.3,0.2-0.5
	c0.2-0.3,0.3-0.7,0.5-1c0.2-0.3,0.4-0.6,0.6-0.9C372.2,367.5,372.4,367.3,372.6,367 M374.7,381.1L374.7,381.1c0.4,0,0.6-0.2,0.7-0.4
	c0.1-0.1,0.2-0.4,0-0.7c0,0,0,0,0,0l0.2-0.6c0.1-0.3,0.2-0.7,0.4-1c0.1-0.4,0.3-0.7,0.5-1.1c0.4-0.9,0.9-1.9,1.4-2.9
	c0.5-1.1,1.2-2.2,1.8-3.4c0.4-0.7,0.8-1.6,1.4-2.5c0.5-1,1.1-1.9,1.7-2.9c0.6-1,1.2-1.9,1.7-2.9c0.5-0.8,1-1.6,1.4-2.2l2.4-0.2
	c0.9-0.1,1.7-0.2,2.5-0.2c0.8-0.1,1.7-0.1,2.5-0.1l0.4,0c0.6,0,1.2,0,1.8,0.1c0,0.1,0.2,0.3,0.3,0.3c0.1,0,0.2,0.1,0.4,0.1l0.1,0
	c0.1,0,0.2,0,0.3,0c0.2,0,0.3-0.1,0.4-0.2c0.2-0.1,0.3-0.2,0.3-0.4c0.1-0.2,0.1-0.5-0.1-0.7c-0.1-0.2-0.3-0.3-0.6-0.5
	c-0.4-0.1-0.8-0.2-1.3-0.3c-0.5,0-1-0.1-1.5-0.1l-0.5,0c-0.4,0-0.7,0-1.1,0c-0.5,0-1,0-1.4,0.1c-0.7,0-1.4,0.1-2.2,0.1
	c-0.5,0-1,0.1-1.5,0.1l0.2-0.2c0.2-0.3,0.4-0.6,0.6-0.9c0.2-0.3,0.4-0.6,0.6-0.9c0.2-0.3,0.4-0.5,0.5-0.7c0.1-0.1,0.2-0.3,0.1-0.6
	c-0.1-0.2-0.1-0.3-0.3-0.5c-0.1-0.2-0.3-0.3-0.5-0.3c-0.1,0-0.2-0.1-0.3-0.1c-0.2,0-0.3,0-0.5,0.2c-0.2,0.2-0.5,0.5-0.7,0.8
	c-0.3,0.3-0.5,0.7-0.8,1.1c-0.3,0.4-0.6,0.8-0.8,1.2c-0.2,0.4-0.5,0.7-0.7,1.1c-1.2,0.1-2.3,0.3-3.2,0.4c-1,0.1-2,0.3-3,0.4
	c-0.2,0-0.4,0.1-0.6,0.4c-0.1,0.2-0.2,0.4-0.2,0.5c0,0.2,0,0.4,0.1,0.5c0.1,0.2,0.3,0.4,0.5,0.4l0.1,0c0.8-0.1,1.7-0.3,2.7-0.4
	c0.7-0.1,1.5-0.2,2.2-0.3c-0.3,0.5-0.7,1-1,1.6c-0.5,0.9-1.1,1.8-1.6,2.7c-0.5,0.9-1.1,1.8-1.6,2.7c-0.5,0.9-0.9,1.6-1.3,2.3
	c-0.3,0.6-0.6,1.1-0.8,1.6c-0.2,0.4-0.5,0.9-0.6,1.3c-0.2,0.4-0.4,0.8-0.6,1.1c-0.2,0.4-0.4,0.8-0.6,1.2c-0.1,0.1-0.2,0.4-0.3,0.8
	c-0.2,0.4-0.3,0.8-0.5,1.2c-0.2,0.5-0.3,0.9-0.4,1.4c-0.1,0.5-0.2,0.9-0.2,1.3c0,0.3,0.1,0.6,0.2,0.8
	C374,380.8,374.2,381,374.7,381.1L374.7,381.1z M403.9,374.1c0.1,0,0.2,0,0.3-0.1c0.2-0.1,0.4-0.3,0.4-0.5c0-0.2,0-0.4-0.1-0.5
	c-0.1-0.2-0.3-0.3-0.5-0.3c0,0-0.2,0-0.5-0.3c-0.3-0.2-0.5-0.5-0.8-0.9c-0.3-0.4-0.6-0.8-0.9-1.2c-0.2-0.3-0.4-0.7-0.6-1
	c0.9-0.6,1.8-1.2,2.7-1.8c1-0.6,2-1.2,3.1-1.8l0,0l0,0c0.2-0.1,0.2-0.4,0.2-0.6c0-0.1-0.2-0.4-0.7-0.4c-0.4,0-0.8,0.1-1.4,0.4
	c-0.5,0.2-1.1,0.5-1.7,0.8c-0.6,0.3-1.2,0.7-1.8,1c-0.5,0.3-0.9,0.5-1.3,0.8c-0.1-0.3-0.3-0.7-0.3-1c-0.1-0.5-0.2-0.8-0.3-1.1
	c-0.1-0.2-0.4-0.4-0.6-0.4c-0.2-0.1-0.5-0.1-0.7-0.1c-0.1,0-0.2,0-0.3,0c-0.3,0-0.5,0.1-0.6,0.2l-0.1,0.2l0,0.2
	c0.1,0.8,0.4,1.4,0.4,1.4l0.4,0.9c0.1,0.2,0.2,0.5,0.3,0.8l-0.7,0.5c-0.4,0.3-0.9,0.6-1.3,0.9c-0.5,0.3-0.9,0.6-1.3,0.9
	c-0.4,0.3-0.7,0.6-1,0.8c-0.2,0.2-0.3,0.4-0.4,0.6c-0.1,0.2-0.1,0.4-0.1,0.7c0,0.3,0,0.5,0.2,0.6c0.1,0.2,0.3,0.2,0.4,0.2
	c0.1,0,0.2,0,0.3-0.1c0.6-0.4,1.4-0.9,2.3-1.6c0.8-0.6,1.7-1.2,2.6-1.8c0.2,0.3,0.4,0.6,0.7,1c0.3,0.4,0.7,0.8,1,1.2
	c0.4,0.4,0.7,0.7,1.1,0.9c0.4,0.3,0.8,0.4,1.1,0.5C403.6,374.1,403.7,374.1,403.9,374.1 M414,373.5c0.4,0,0.9-0.1,1.4-0.4
	c0.6-0.3,1.2-0.7,1.8-1.1c0.6-0.4,1.2-0.9,1.8-1.5c0.6-0.5,1.1-1,1.6-1.5c0.5-0.5,0.8-0.9,1.1-1.3c0.3-0.4,0.4-0.6,0.3-0.8l-0.1-0.2
	l-0.1-0.1c-0.1-0.1-0.2-0.1-0.3-0.1c-0.1,0-0.2,0-0.2,0c-0.1,0-0.2,0.1-0.3,0.2l-1,0.8c-0.4,0.3-0.9,0.7-1.5,1.1
	c-0.6,0.4-1.1,0.8-1.7,1.3c-0.6,0.4-1.2,0.8-1.7,1.1c-0.5,0.3-0.9,0.5-1.3,0.6c-0.1,0-0.2,0.1-0.2,0.1c0,0,0,0,0,0c0,0,0-0.1,0-0.3
	c0.1-0.8,0.3-1.6,0.8-2.2c0.4-0.7,0.9-1.3,1.5-1.9c0.2-0.2,0.2-0.5,0-0.8c-0.1-0.2-0.2-0.3-0.3-0.4c-0.2-0.1-0.3-0.2-0.5-0.3
	c-0.1,0-0.1,0-0.2,0c-0.2,0-0.4,0.1-0.6,0.2c0,0,0,0-0.1,0.1c-0.4-0.6-1-0.9-1.7-0.9c-0.1,0-0.1,0-0.2,0c-0.4,0-0.9,0.1-1.3,0.3
	c-0.5,0.2-1,0.5-1.5,0.8c-0.5,0.3-0.9,0.8-1.3,1.2c-0.4,0.4-0.8,0.9-1.1,1.4c-0.3,0.5-0.6,1-0.8,1.5c-0.2,0.5-0.3,1-0.3,1.4
	c0,0.3,0.1,0.6,0.2,0.8c0.1,0.2,0.3,0.4,0.6,0.6c0.2,0.1,0.5,0.2,0.8,0.3c0.1,0,0.1,0,0.2,0c0.2,0,0.4,0,0.6-0.1
	c0.3-0.1,0.7-0.3,1-0.6c0.4-0.3,0.7-0.5,1.1-0.8c0.4-0.3,0.7-0.6,1.1-0.9c0,0,0.1-0.1,0.1-0.1c0,0.1,0,0.2,0,0.4
	c0,0.3,0.1,0.5,0.2,0.8c0.1,0.3,0.3,0.5,0.4,0.7c0.2,0.2,0.4,0.4,0.6,0.6c0.3,0.1,0.5,0.2,0.8,0.3
	C413.9,373.5,413.9,373.5,414,373.5 M412.7,366.9c0.2,0,0.2,0.1,0.2,0.1c0,0,0.1,0.1,0.1,0.1c0,0.1-0.1,0.3-0.2,0.3
	c-0.8,0.7-1.4,1.2-2,1.7c-0.5,0.5-1,0.9-1.4,1.2c-0.4,0.3-0.7,0.6-1,0.8c0,0,0,0,0,0c0,0,0-0.1,0-0.1c0.1-0.4,0.3-0.7,0.5-1.1
	c0.2-0.3,0.4-0.7,0.7-1c0.2-0.3,0.5-0.6,0.7-0.8c0.4-0.4,0.9-0.7,1.3-0.9C412,367,412.4,366.9,412.7,366.9 M423.2,391.5
	c0.7,0,1.4-0.2,2.2-0.7c0.8-0.4,1.5-1,2.1-1.7c0.4-0.5,0.9-1.1,1.3-1.8c0.4-0.7,0.9-1.5,1.4-2.3c0.5-0.8,0.9-1.7,1.4-2.6l1.3-2.6
	c0.4-0.9,0.8-1.7,1.2-2.5c0.4-0.8,0.7-1.4,1.1-2.1c0.7-0.4,1.4-0.8,2.1-1.2c0.8-0.4,1.5-0.8,2.2-1.2c0.7-0.4,1.4-0.7,2-1.1l1.6-0.8
	l0,0c0.4-0.3,0.5-0.5,0.5-0.8c0-0.1-0.1-0.4-0.6-0.4c-0.2,0-0.3,0-0.5,0.1c-0.2,0-0.3,0.1-0.3,0.1c-0.2,0-0.5,0.1-0.9,0.3
	c-0.4,0.1-0.8,0.3-1.2,0.5c-0.4,0.2-0.9,0.4-1.4,0.6c-0.5,0.2-0.9,0.4-1.4,0.7c-0.3,0.2-0.6,0.3-0.9,0.4c0.1-0.1,0.8-1.4,1.1-2
	c0.3-0.5,0.6-1.1,0.9-1.6l0.8-1.4c0.2-0.4,1-1.8,1-1.8c0.1-0.2,0.1-0.4,0-0.6c0-0.2-0.1-0.3-0.2-0.5c-0.1-0.1-0.2-0.2-0.4-0.3
	c-0.2-0.1-0.3-0.2-0.5-0.2c-0.3,0-0.5,0.1-0.6,0.4l-0.1,0.1c-0.2,0.3-0.5,0.7-0.8,1c-0.1,0.1-0.2,0.3-0.4,0.4
	c-0.1-0.2-0.1-0.3-0.2-0.5c-0.2-0.4-0.6-0.7-1.1-0.8c-0.1,0-0.3,0-0.4,0c-0.3,0-0.7,0.1-1,0.2c-0.5,0.2-0.9,0.4-1.4,0.7
	c-0.5,0.3-0.9,0.7-1.3,1.1c-0.4,0.4-0.8,0.9-1.1,1.4c-0.3,0.5-0.6,1-0.8,1.5c-0.2,0.5-0.3,1-0.3,1.4c0,0.3,0,0.5,0.1,0.7
	c0.1,0.2,0.2,0.4,0.3,0.6c0.2,0.2,0.3,0.4,0.5,0.5c0.2,0.1,0.4,0.3,0.7,0.3c0.1,0,0.3,0.1,0.4,0.1c0.1,0,0.3,0,0.4-0.1
	c0.3-0.1,0.6-0.2,0.9-0.5c0.3-0.2,0.7-0.5,1.1-0.8c0.3-0.2,0.6-0.5,0.8-0.7l-0.3,0.6c-0.4,0.8-0.9,1.6-1.2,2.3
	c-0.4,0.3-1,0.6-1.8,1.1c-0.8,0.5-1.7,1.1-2.7,1.7c-1,0.6-2,1.4-3,2.2c-1,0.8-2,1.7-2.9,2.6c-0.9,0.9-1.6,1.9-2.2,2.8
	c-0.6,1-0.9,2-0.9,3.1c0,0.6,0.1,1.1,0.2,1.6c0.2,0.5,0.4,0.9,0.7,1.2c0.3,0.4,0.7,0.6,1.1,0.8C422.3,391.4,422.8,391.5,423.2,391.5
	 M431.9,377.2c-0.1,0.1-0.7,1.5-0.7,1.5c-0.2,0.4-0.5,1-0.9,1.7c-0.4,0.8-0.8,1.5-1.2,2.2c-0.4,0.7-0.8,1.4-1.1,2.1
	c-0.4,0.6-0.7,1.3-1.1,1.8c-0.4,0.6-0.7,1-1,1.4c-0.5,0.6-0.9,1-1.4,1.3c-0.5,0.3-0.9,0.4-1.3,0.4c-0.4,0-0.6-0.1-0.9-0.4
	c-0.2-0.3-0.4-0.8-0.4-1.4c0-0.5,0.1-1,0.3-1.5c0.2-0.5,0.5-1.1,0.8-1.6c0.3-0.5,0.7-1.1,1.2-1.6c0.5-0.5,1-1,1.5-1.5
	c0.4-0.4,0.9-0.7,1.4-1.2c0.5-0.4,1.1-0.9,1.8-1.4c0.6-0.5,1.3-1,2-1.4C431.2,377.7,431.5,377.4,431.9,377.2 M435.7,366.6
	C435.7,366.6,435.7,366.6,435.7,366.6c0.1,0,0.1,0.1,0.1,0.2c0,0.2,0,0.4-0.1,0.6c-0.1,0.2-0.1,0.3-0.2,0.4
	c-0.2,0.1-0.3,0.3-0.3,0.5c-0.4,0.4-0.8,0.8-1.2,1.1c-0.4,0.4-0.8,0.7-1.2,1c-0.4,0.3-0.7,0.5-0.9,0.7c0,0,0,0-0.1,0
	c0-0.2,0-0.3,0.1-0.5c0.1-0.4,0.3-0.8,0.5-1.2c0.2-0.4,0.5-0.8,0.8-1.2c0.3-0.4,0.7-0.7,1-1c0.3-0.3,0.7-0.5,1-0.6
	C435.3,366.7,435.5,366.6,435.7,366.6L435.7,366.6z M443.7,373.9c0.4,0,0.9-0.1,1.4-0.4c0.5-0.2,1.1-0.5,1.6-0.8
	c0.6-0.3,1.1-0.7,1.7-1.1c0.6-0.4,1.1-0.8,1.7-1.2c0.5-0.4,1-0.8,1.4-1.2c0.4-0.4,0.7-0.7,0.9-0.9c0.1-0.1,0.3-0.3,0.4-0.5
	c0.1-0.2,0.2-0.3,0.3-0.5c0.1-0.2,0.1-0.3,0.2-0.5c0-0.3-0.1-0.5-0.4-0.6c0,0-0.1,0-0.1,0c-0.1,0-0.3,0-0.4,0.1
	c-0.1,0.1-0.2,0.1-0.2,0.2c-0.4,0.4-0.9,0.8-1.5,1.3c-0.6,0.4-1.2,0.9-1.8,1.3c-0.6,0.4-1.3,0.9-1.9,1.2c-0.6,0.4-1.2,0.7-1.7,1
	c-0.5,0.3-1,0.5-1.3,0.6c-0.2,0.1-0.3,0.1-0.4,0.1c0,0,0-0.1,0-0.1c0.1-0.3,0.3-0.7,0.5-1.1c0.2-0.4,0.5-0.9,0.8-1.4
	c0.3-0.5,0.6-1,0.9-1.4c0.3-0.5,0.5-0.8,0.8-1.2l0.5-0.7l0,0c0.1-0.2,0.1-0.4,0-0.6c-0.1-0.2-0.2-0.3-0.3-0.4
	c-0.2-0.2-0.5-0.3-0.7-0.3c0,0-0.1,0-0.1,0c-0.3,0-0.6,0.2-0.7,0.5l-1,1.4c-0.3,0.5-0.7,1-1,1.5c-0.3,0.5-0.6,1-0.8,1.4
	c-0.2,0.5-0.4,0.9-0.6,1.4c-0.1,0.3-0.1,0.6-0.1,0.8c0,0.6,0.2,1.1,0.6,1.5C442.6,373.7,443,373.9,443.7,373.9L443.7,373.9z
	 M447.2,364.8c0.2,0,0.3,0,0.5-0.1c0.2-0.1,0.5-0.3,0.7-0.5c0.2-0.2,0.4-0.4,0.6-0.6c0.2-0.3,0.3-0.5,0.3-0.8c0-0.3-0.1-0.6-0.3-0.8
	c-0.2-0.2-0.5-0.3-0.8-0.3c-0.2,0-0.4,0-0.5,0.1c-0.2,0.1-0.3,0.3-0.4,0.5c-0.1,0.2-0.2,0.4-0.4,0.7c-0.2,0.2-0.3,0.4-0.5,0.5l0,0
	l0,0c-0.1,0.2-0.1,0.3-0.1,0.4c0,0.2,0.1,0.3,0.5,0.6l0.1,0l0.2,0.1C446.9,364.7,447,364.8,447.2,364.8 M456.6,373.5
	c0.4,0,0.9-0.1,1.4-0.4c0.6-0.3,1.2-0.7,1.8-1.1c0.6-0.4,1.2-0.9,1.8-1.5c0.6-0.5,1.1-1,1.6-1.5c0.5-0.5,0.8-0.9,1.1-1.3
	c0.3-0.4,0.4-0.6,0.3-0.8l-0.1-0.2l-0.1-0.1c-0.1-0.1-0.2-0.1-0.3-0.1c-0.1,0-0.2,0-0.2,0c-0.1,0-0.2,0.1-0.3,0.2l-1,0.8
	c-0.4,0.3-0.9,0.7-1.5,1.1c-0.6,0.4-1.1,0.8-1.7,1.3c-0.6,0.4-1.2,0.8-1.7,1.1c-0.5,0.3-0.9,0.5-1.3,0.6c-0.1,0-0.2,0.1-0.2,0.1
	c0,0,0,0,0,0c0,0,0-0.1,0-0.3c0.1-0.8,0.3-1.6,0.8-2.2c0.4-0.7,0.9-1.3,1.5-1.9c0.2-0.2,0.2-0.5,0-0.8c-0.1-0.2-0.2-0.3-0.3-0.4
	c-0.2-0.1-0.3-0.2-0.5-0.3c-0.1,0-0.1,0-0.2,0c-0.2,0-0.4,0.1-0.6,0.2c0,0,0,0-0.1,0.1c-0.4-0.6-1-0.9-1.7-0.9c-0.1,0-0.1,0-0.2,0
	c-0.4,0-0.9,0.1-1.3,0.3c-0.5,0.2-1,0.5-1.5,0.8c-0.5,0.3-0.9,0.8-1.3,1.2c-0.4,0.4-0.8,0.9-1.1,1.4c-0.3,0.5-0.6,1-0.8,1.5
	c-0.2,0.5-0.3,1-0.3,1.4c0,0.3,0.1,0.6,0.2,0.8c0.1,0.2,0.3,0.4,0.6,0.6c0.2,0.1,0.5,0.2,0.8,0.3c0.1,0,0.1,0,0.2,0
	c0.2,0,0.4,0,0.6-0.1c0.3-0.1,0.7-0.3,1-0.6c0.4-0.3,0.7-0.5,1.1-0.8c0.4-0.3,0.7-0.6,1.1-0.9c0,0,0.1-0.1,0.1-0.1
	c0,0.1,0,0.2,0,0.4c0,0.3,0.1,0.5,0.2,0.8c0.1,0.3,0.3,0.5,0.4,0.7c0.2,0.2,0.4,0.4,0.6,0.6c0.3,0.1,0.5,0.2,0.8,0.3
	C456.5,373.5,456.5,373.5,456.6,373.5 M455.3,366.9c0.2,0,0.2,0.1,0.2,0.1c0,0,0.1,0.1,0.1,0.1c0,0.1-0.1,0.3-0.2,0.3
	c-0.8,0.7-1.4,1.2-2,1.7c-0.5,0.5-1,0.9-1.4,1.2c-0.4,0.3-0.7,0.6-1,0.8c0,0,0,0,0,0c0,0,0-0.1,0-0.1c0.1-0.4,0.3-0.7,0.5-1.1
	c0.2-0.3,0.4-0.7,0.7-1c0.2-0.3,0.5-0.6,0.7-0.8c0.4-0.4,0.9-0.7,1.3-0.9C454.6,367,455,366.9,455.3,366.9 M469.2,381.1L469.2,381.1
	c0.4,0,0.6-0.2,0.7-0.4c0.1-0.1,0.2-0.4,0-0.7c0,0,0,0,0,0l0.2-0.6c0.1-0.3,0.2-0.7,0.4-1c0.1-0.4,0.3-0.7,0.5-1.1
	c0.4-0.9,0.9-1.9,1.4-2.9c0.5-1.1,1.2-2.2,1.8-3.4c0.4-0.7,0.8-1.6,1.4-2.5c0.5-1,1.1-1.9,1.7-2.9c0.6-1,1.2-1.9,1.7-2.9
	c0.5-0.8,1-1.6,1.4-2.2l2.4-0.2c0.9-0.1,1.7-0.2,2.5-0.2c0.8-0.1,1.7-0.1,2.5-0.1l0.4,0c0.6,0,1.2,0,1.8,0.1c0,0.1,0.2,0.3,0.3,0.3
	c0.1,0,0.2,0.1,0.4,0.1l0.1,0c0.1,0,0.2,0,0.3,0c0.2,0,0.3-0.1,0.4-0.2c0.2-0.1,0.3-0.2,0.3-0.4c0.1-0.2,0.1-0.5-0.1-0.7
	c-0.1-0.2-0.3-0.3-0.6-0.5c-0.4-0.1-0.8-0.2-1.3-0.3c-0.5,0-1-0.1-1.5-0.1l-0.5,0c-0.4,0-0.7,0-1.1,0c-0.5,0-1,0-1.4,0.1
	c-0.7,0-1.4,0.1-2.2,0.1c-0.5,0-1,0.1-1.5,0.1l0.2-0.2c0.2-0.3,0.4-0.6,0.6-0.9c0.2-0.3,0.4-0.6,0.6-0.9c0.2-0.3,0.4-0.5,0.5-0.7
	c0.1-0.1,0.2-0.3,0.1-0.6c-0.1-0.2-0.1-0.3-0.3-0.5c-0.1-0.2-0.3-0.3-0.5-0.3c-0.1,0-0.2-0.1-0.3-0.1c-0.2,0-0.3,0-0.5,0.2
	c-0.2,0.2-0.5,0.5-0.7,0.8c-0.3,0.3-0.5,0.7-0.8,1.1c-0.3,0.4-0.6,0.8-0.8,1.2c-0.2,0.4-0.5,0.7-0.7,1.1c-1.2,0.1-2.3,0.3-3.2,0.4
	c-1,0.1-2,0.3-3,0.4c-0.2,0-0.4,0.1-0.6,0.4c-0.1,0.2-0.2,0.4-0.2,0.5c0,0.2,0,0.4,0.1,0.5c0.1,0.2,0.3,0.4,0.5,0.4l0.1,0
	c0.8-0.1,1.7-0.3,2.7-0.4c0.7-0.1,1.5-0.2,2.2-0.3c-0.3,0.5-0.7,1-1,1.6c-0.5,0.9-1.1,1.8-1.6,2.7c-0.5,0.9-1.1,1.8-1.6,2.7
	c-0.5,0.9-0.9,1.6-1.3,2.3c-0.3,0.6-0.6,1.1-0.8,1.6c-0.2,0.4-0.5,0.9-0.6,1.3c-0.2,0.4-0.4,0.8-0.6,1.1c-0.2,0.4-0.4,0.8-0.6,1.2
	c-0.1,0.1-0.2,0.4-0.3,0.8c-0.2,0.4-0.3,0.8-0.5,1.2c-0.2,0.5-0.3,0.9-0.4,1.4c-0.1,0.5-0.2,0.9-0.2,1.3c0,0.3,0.1,0.6,0.2,0.8
	C468.5,380.8,468.8,381,469.2,381.1L469.2,381.1z M477.6,374.8c0.2,0,0.5-0.1,0.6-0.4c0.4-0.7,0.9-1.4,1.4-2.1c0.5-0.7,1-1.4,1.6-2
	c0.6-0.6,1.3-1.3,2-1.9c0.6-0.5,1.3-0.9,2-1.4c0,0.2,0,0.4,0.1,0.6c0.1,0.5,0.2,0.9,0.4,1.2c0.2,0.4,0.5,0.7,0.9,0.9
	c0.4,0.2,0.8,0.4,1.4,0.4c0.3,0,0.7-0.1,1.2-0.3c0.5-0.2,1-0.4,1.5-0.7c0.5-0.3,0.9-0.5,1.3-0.8c0.4-0.4,0.7-0.7,0.7-1.1
	c0-0.3-0.2-0.5-0.5-0.5l-0.1,0c-0.1,0-0.2,0-0.3,0.1c-0.3,0.1-0.6,0.3-1,0.5c-0.4,0.2-0.8,0.4-1.2,0.5c-0.4,0.2-0.8,0.3-1.2,0.4
	c-0.3,0.1-0.5,0.1-0.7,0.1c0,0,0-0.1,0-0.1c-0.1-0.2-0.1-0.5-0.2-0.8c0-0.3-0.1-0.6-0.1-0.9c0-0.3,0-0.5,0-0.6
	c0-0.3-0.2-0.5-0.4-0.7c-0.2-0.2-0.4-0.3-0.6-0.3c-0.2-0.1-0.5-0.1-0.7-0.1c-0.3,0-0.5,0-0.7,0.1c-0.3,0.1-0.6,0.3-0.9,0.5
	c-0.3,0.2-0.7,0.4-1,0.6c-0.2,0.1-0.3,0.2-0.5,0.3c0.1-0.2,0.2-0.4,0.2-0.6c0.1-0.2,0-0.4-0.1-0.6c-0.1-0.1-0.2-0.2-0.3-0.3
	c-0.1-0.1-0.3-0.2-0.4-0.2c-0.1,0-0.3-0.1-0.4-0.1l-0.1,0l0,0c-0.3,0.1-0.4,0.2-0.5,0.3c-0.1,0.1-0.1,0.3,0,0.4
	c-0.8,1.7-1.6,3.2-2.4,4.5c-0.8,1.3-1.5,2.5-2,3.6c-0.1,0.2-0.1,0.4,0,0.7c0.1,0.2,0.2,0.4,0.4,0.5
	C477.1,374.7,477.3,374.8,477.6,374.8L477.6,374.8z M490.7,376.9c0.3,0,0.6-0.1,0.8-0.3c0.2-0.2,0.3-0.5,0.3-0.8
	c0-0.2,0-0.4-0.1-0.5c-0.1-0.2-0.2-0.3-0.4-0.4c-0.2-0.2-0.4-0.3-0.6-0.3c-0.1,0-0.3,0-0.4,0.1c-0.3,0.1-0.5,0.4-0.7,0.6
	c-0.1,0.3-0.2,0.6-0.1,0.9c0.1,0.3,0.3,0.6,1,0.6C490.5,376.9,490.6,376.9,490.7,376.9 M491.1,373.9c0.4,0,0.9-0.1,1.4-0.4
	c0.5-0.2,1.1-0.5,1.6-0.8c0.6-0.3,1.1-0.7,1.7-1.1c0.6-0.4,1.1-0.8,1.7-1.2c0.5-0.4,1-0.8,1.4-1.2c0.4-0.4,0.7-0.7,0.9-0.9
	c0.1-0.1,0.3-0.3,0.4-0.5c0.1-0.2,0.2-0.3,0.3-0.5c0.1-0.2,0.1-0.3,0.2-0.5c0-0.3-0.1-0.5-0.4-0.6c0,0-0.1,0-0.1,0
	c-0.1,0-0.3,0-0.4,0.1c-0.1,0.1-0.2,0.1-0.2,0.2c-0.4,0.4-0.9,0.8-1.5,1.3c-0.6,0.4-1.2,0.9-1.8,1.3c-0.6,0.4-1.3,0.9-1.9,1.2
	c-0.6,0.4-1.2,0.7-1.7,1c-0.5,0.3-1,0.5-1.3,0.6c-0.2,0.1-0.3,0.1-0.4,0.1c0,0,0-0.1,0-0.1c0.1-0.3,0.3-0.7,0.5-1.1
	c0.2-0.4,0.5-0.9,0.8-1.4c0.3-0.5,0.6-1,0.9-1.4c0.3-0.5,0.5-0.8,0.8-1.2l0.5-0.7l0,0c0.1-0.2,0.1-0.4,0-0.6
	c-0.1-0.2-0.2-0.3-0.3-0.4c-0.2-0.2-0.5-0.3-0.7-0.3c0,0-0.1,0-0.1,0c-0.3,0-0.6,0.2-0.7,0.5l-1,1.4c-0.3,0.5-0.7,1-1,1.5
	c-0.3,0.5-0.6,1-0.8,1.4c-0.2,0.5-0.4,0.9-0.6,1.4c-0.1,0.3-0.1,0.6-0.1,0.8c0,0.6,0.2,1.1,0.6,1.5
	C490.1,373.7,490.5,373.9,491.1,373.9L491.1,373.9z M494.6,364.8c0.2,0,0.3,0,0.5-0.1c0.2-0.1,0.5-0.3,0.7-0.5
	c0.2-0.2,0.4-0.4,0.6-0.6c0.2-0.3,0.3-0.5,0.3-0.8c0-0.3-0.1-0.6-0.3-0.8c-0.2-0.2-0.5-0.3-0.8-0.3c-0.2,0-0.4,0-0.5,0.1
	c-0.2,0.1-0.3,0.3-0.4,0.5c-0.1,0.2-0.2,0.4-0.4,0.7c-0.2,0.2-0.3,0.4-0.5,0.5l0,0l0,0c-0.1,0.2-0.1,0.3-0.1,0.4
	c0,0.2,0.1,0.3,0.5,0.6l0.1,0l0.2,0.1C494.4,364.7,494.5,364.8,494.6,364.8"/>
<g id="XMLID_1_">
</g>
<g id="XMLID_2_">
</g>
<g id="XMLID_3_">
</g>
<g id="XMLID_4_">
</g>
<g id="XMLID_5_">
</g>
<g id="XMLID_6_">
</g>
</svg>
