<svg 
 xmlns="http://www.w3.org/2000/svg"
 xmlns:xlink="http://www.w3.org/1999/xlink"
 width="67px" height="67px">
<path fill-rule="evenodd"  stroke-width="1px" stroke="rgb(255, 255, 255)" fill-opacity="0" opacity="0.149" fill="rgb(255, 255, 255)"
 d="M33.500,3.500 C50.068,3.500 63.500,16.931 63.500,33.501 C63.500,50.069 50.068,63.500 33.500,63.500 C16.931,63.500 3.500,50.069 3.500,33.501 C3.500,16.931 16.931,3.500 33.500,3.500 Z"/>
<path fill-rule="evenodd"  opacity="0.702" fill="rgb(255, 255, 255)"
 d="M42.597,25.575 C41.028,24.604 39.821,22.784 39.519,20.963 C39.459,20.538 39.398,20.175 39.398,19.750 L34.631,19.750 L34.631,31.035 L34.631,38.862 C34.631,41.107 32.821,42.928 30.588,42.928 C29.863,42.928 29.260,42.746 28.657,42.442 C27.389,41.775 26.484,40.379 26.484,38.862 C26.484,36.618 28.295,34.797 30.588,34.797 C31.010,34.797 31.372,34.858 31.795,34.980 L31.795,31.217 L31.795,30.124 C31.372,30.065 31.010,30.003 30.588,30.003 C25.700,30.003 21.717,33.948 21.717,38.862 C21.717,41.836 23.225,44.506 25.519,46.083 C26.967,47.053 28.717,47.660 30.588,47.660 C35.476,47.660 39.398,43.716 39.398,38.862 L39.398,28.912 C41.209,30.550 43.623,31.338 46.037,31.157 L46.037,27.577 L46.037,26.363 C44.830,26.606 43.623,26.242 42.597,25.575 Z"/>
</svg>