<svg 
 xmlns="http://www.w3.org/2000/svg"
 xmlns:xlink="http://www.w3.org/1999/xlink"
 width="67px" height="67px">
<path fill-rule="evenodd"  stroke-width="1px" stroke="rgb(255, 255, 255)" fill-opacity="0" opacity="0.149" fill="rgb(255, 255, 255)"
 d="M33.500,3.500 C50.069,3.500 63.500,16.931 63.500,33.501 C63.500,50.069 50.069,63.500 33.500,63.500 C16.931,63.500 3.500,50.069 3.500,33.501 C3.500,16.931 16.931,3.500 33.500,3.500 Z"/>
<path fill-rule="evenodd"  opacity="0.702" fill="rgb(255, 255, 255)"
 d="M30.612,47.032 L36.104,47.032 L36.104,34.620 L40.161,34.620 L40.972,29.607 L36.104,29.607 L36.104,25.816 C36.104,24.411 37.477,23.616 38.788,23.616 L41.160,23.616 L41.160,19.459 L36.915,19.275 C32.858,19.031 30.612,22.148 30.612,25.878 L30.612,29.607 L25.993,29.607 L25.993,34.620 L30.612,34.620 L30.612,47.032 Z"/>
</svg>