<?xml version="1.0" encoding="UTF-8"?>
<svg id="Layer_2" data-name="Layer 2" xmlns="http://www.w3.org/2000/svg" viewBox="0 0 20 28">
  <defs>
    <style>
      .cls-1 {
        fill: none;
        stroke: #ffbdd6;
        stroke-miterlimit: 10;
        stroke-width: 2px;
      }

      .cls-2 {
        fill: #f8bcd5;
      }

      .cls-2, .cls-3 {
        stroke-width: 0px;
      }

      .cls-3 {
        fill: #fff;
      }
    </style>
  </defs>
  <g id="Layer_1-2" data-name="Layer 1">
    <path class="cls-3" d="M10,1.83l8.5,5.95v12.44l-8.5,5.95L1.5,20.22V7.78L10,1.83M10,0L0,7v14l10,7,10-7V7L10,0h0Z"/>
    <polygon class="cls-1" points="16 14 10 10 4 14 10 18 16 14"/>
    <path class="cls-2" d="M11.62,15.47c-.81-1.63-2.41-2.88-4.18-3.3l1.05,1.85c-.62.6-.77.81-.46.64.07-.03.14-.06.21-.1.14-.06.28-.13.42-.19.07-.03.14-.06.21-.09-.18.08-.2.08-.04.02.14-.06.28-.11.42-.17.28-.11.57-.21.86-.31.14-.05.29-.1.43-.14.06-.02.13-.04.2-.06-.1.03-.2.03-.3.01-.11,0-.21-.04-.3-.1-.18-.15-.21-.17-.09-.07.08.09.17.18.25.28.19.22.38.44.58.64.4.42.83.8,1.28,1.15l1.06-2.56c-.45.02-.91.02-1.36.01-.78-.02-1.54.7-1.5,1.5s.66,1.48,1.5,1.5c.45,0,.91,0,1.36-.01.61-.02,1.13-.36,1.37-.92.21-.5.15-1.27-.31-1.64-.57-.44-1.1-.93-1.58-1.47-.21-.23-.4-.49-.64-.7-.53-.45-1.12-.67-1.82-.57-.76.1-1.51.44-2.21.73-.85.35-2.27.74-2.43,1.81-.06.4-.08.8.15,1.16.21.32.51.6.9.69.16.04.33.08.49.14.05.02.16.09.22.08-.2-.09-.25-.11-.15-.06.04.02.08.04.13.06.15.07.3.16.44.25.07.04.13.08.19.13.04.03.08.05.11.08.09.07.05.04-.12-.09.02.07.28.25.34.31s.31.4.37.41c-.06,0-.21-.29-.04-.05.04.06.09.13.13.19.1.16.19.32.27.48.35.71,1.4.96,2.05.54.72-.47.91-1.3.54-2.05h0Z"/>
  </g>
</svg>