<?xml version="1.0" encoding="utf-8"?>
<!-- Generator: Adobe Illustrator 19.0.0, SVG Export Plug-In . SVG Version: 6.00 Build 0)  -->
<svg version="1.1" id="Layer_1" xmlns="http://www.w3.org/2000/svg" xmlns:xlink="http://www.w3.org/1999/xlink" x="0px" y="0px"
	 width="561.9px" height="562.1px" viewBox="0 0 561.9 562.1" style="enable-background:new 0 0 561.9 562.1;" xml:space="preserve"
	>
<style type="text/css">
	.st0{clip-path:url(#SVGID_2_);fill:none;stroke:#294d46;stroke-width:1.5;stroke-miterlimit:10;}
</style>
<g>
	<defs>
		<rect id="SVGID_1_" width="561.9" height="562.1"/>
	</defs>
	<clipPath id="SVGID_2_">
		<use xlink:href="#SVGID_1_"  style="overflow:visible;"/>
	</clipPath>
	<path class="st0" d="M560.9,280.9c0-0.4-0.1-0.7-0.2-1.1c-0.1-0.4-0.1-0.9-0.3-1.3c0-0.1,0-0.2-0.1-0.3L481.5,84.5
		c-0.1-0.1-0.2-0.2-0.2-0.3c-0.1-0.2-0.2-0.5-0.4-0.7c-0.1-0.2-0.3-0.4-0.4-0.6c-0.2-0.2-0.3-0.4-0.5-0.6c-0.1-0.1-0.1-0.2-0.2-0.3
		c-0.1-0.1-0.2-0.1-0.3-0.2c-0.2-0.2-0.4-0.3-0.6-0.5c-0.2-0.2-0.5-0.4-0.7-0.5c-0.2-0.1-0.4-0.2-0.6-0.3c-0.1-0.1-0.2-0.2-0.3-0.2
		L283.7,1.6c-0.1,0-0.2,0-0.3-0.1c-0.4-0.2-0.9-0.2-1.3-0.3c-0.4-0.1-0.8-0.1-1.2-0.1c-0.4,0-0.8,0.1-1.2,0.1
		c-0.4,0.1-0.9,0.1-1.3,0.3c-0.1,0-0.2,0-0.3,0.1L85.2,80.1c-0.1,0-0.3,0.1-0.4,0.1l-0.4,0.2c-0.1,0-0.1,0.1-0.2,0.1
		c-0.2,0.1-0.3,0.1-0.4,0.2c-0.1,0-0.2,0.1-0.2,0.1c-0.3,0.2-0.6,0.4-0.9,0.6c-0.2,0.1-0.3,0.3-0.4,0.4c-0.1,0.1-0.2,0.1-0.3,0.2
		c-0.1,0.1-0.1,0.1-0.2,0.2c-0.2,0.2-0.4,0.5-0.5,0.7c-0.1,0.2-0.3,0.3-0.4,0.5c-0.1,0.2-0.3,0.5-0.3,0.7c-0.1,0.1-0.2,0.2-0.2,0.4
		L1.4,278.2c-0.1,0.1,0,0.2-0.1,0.3c-0.1,0.4-0.2,0.8-0.3,1.3c-0.1,0.4-0.2,0.7-0.2,1.1c0,0.1,0,0.1,0,0.1c0,0.1,0,0.1,0,0.1
		c0,0.4,0.1,0.7,0.2,1.1c0.1,0.4,0.1,0.9,0.3,1.3c0,0.1,0,0.2,0.1,0.3l78.8,193.6c0.1,0.1,0.1,0.2,0.2,0.4c0.1,0.2,0.2,0.5,0.3,0.7
		c0.1,0.2,0.2,0.4,0.4,0.6c0.1,0.2,0.3,0.4,0.5,0.6c0.1,0.1,0.1,0.2,0.2,0.3c0.1,0.1,0.2,0.1,0.2,0.2c0.2,0.2,0.4,0.3,0.6,0.5
		c0.3,0.3,0.7,0.4,1,0.6c0.2,0.1,0.3,0.2,0.5,0.3c0,0,0.1,0,0.1,0l0,0L278,560.5c0.1,0,0.2,0,0.3,0.1c0.8,0.3,1.7,0.5,2.5,0.5
		c0.1,0,0.1,0,0.1,0c1.1,0,2.2-0.3,3.1-0.7l193.2-78.7l0,0c0,0,0.1,0,0.1-0.1c0.2-0.1,0.3-0.2,0.5-0.3c0.4-0.2,0.7-0.4,1.1-0.6
		c0.2-0.2,0.4-0.3,0.6-0.5c0.1-0.1,0.2-0.1,0.3-0.2c0.1-0.1,0.1-0.2,0.2-0.3c0.2-0.2,0.3-0.4,0.5-0.6c0.1-0.2,0.2-0.3,0.3-0.5
		c0.1-0.2,0.2-0.5,0.4-0.7c0.1-0.1,0.2-0.2,0.2-0.4l78.8-193.6c0-0.1,0-0.2,0.1-0.3c0.2-0.4,0.2-0.8,0.3-1.3
		c0.1-0.4,0.2-0.7,0.2-1.1c0-0.1,0-0.1,0-0.1C560.9,281,560.9,281,560.9,280.9z"/>
	<polygon class="st0" points="280.9,1.1 560.9,281.2 281,561.1 1.1,282.2 	"/>
	<polygon class="st0" points="480.1,82.3 388.6,109.5 173.1,109.5 80.8,83.5 109.4,173.3 109.4,388.8 81.9,480 173.1,452.5 
		388.6,452.5 479.9,480 452.4,388.8 452.4,173.3 	"/>
</g>
</svg>
