<svg width="52" height="52" viewBox="0 0 52 52" fill="none" xmlns="http://www.w3.org/2000/svg">
<path d="M32.3221 29.5114C32.312 29.9255 32.6395 30.2693 33.0536 30.2794C33.4677 30.2895 33.8116 29.962 33.8217 29.5479L33.0719 29.5296L32.3221 29.5114ZM34.0488 20.2353C34.0589 19.8212 33.7314 19.4773 33.3173 19.4672C32.9032 19.4571 32.5594 19.7846 32.5493 20.1987L33.2991 20.217L34.0488 20.2353ZM33.3173 20.9668C33.7314 20.9567 34.0589 20.6128 34.0488 20.1987C34.0387 19.7846 33.6949 19.4571 33.2808 19.4672L33.2991 20.217L33.3173 20.9668ZM23.9681 19.6944C23.554 19.7045 23.2266 20.0484 23.2367 20.4624C23.2468 20.8765 23.5906 21.204 24.0047 21.1939L23.9864 20.4442L23.9681 19.6944ZM33.8294 20.7474C34.1223 20.4545 34.1223 19.9796 33.8294 19.6867C33.5365 19.3938 33.0616 19.3938 32.7687 19.6867L33.2991 20.217L33.8294 20.7474ZM20.049 32.4064C19.7561 32.6993 19.7561 33.1741 20.049 33.467C20.3419 33.7599 20.8168 33.7599 21.1097 33.467L20.5794 32.9367L20.049 32.4064ZM33.0719 29.5296L33.8217 29.5479L34.0488 20.2353L33.2991 20.217L32.5493 20.1987L32.3221 29.5114L33.0719 29.5296ZM33.2991 20.217L33.2808 19.4672L23.9681 19.6944L23.9864 20.4442L24.0047 21.1939L33.3173 20.9668L33.2991 20.217ZM33.2991 20.217L32.7687 19.6867L20.049 32.4064L20.5794 32.9367L21.1097 33.467L33.8294 20.7474L33.2991 20.217Z" fill="#F5F1E8"/>
</svg>
