<svg width="26" height="25" viewBox="0 0 26 25" fill="none" xmlns="http://www.w3.org/2000/svg">
<path d="M25.9957 0.358083C25.9635 0.119853 25.7186 -0.0464454 25.48 0.0116272L2.68566 5.5734C2.53737 5.60969 2.42062 5.72221 2.38137 5.86739C2.34212 6.01257 2.38606 6.16732 2.49644 6.27126L8.33997 11.7809L7.18052 18.8542C7.13523 19.131 7.38886 19.3729 7.66631 19.3264L15.2487 18.0343L22.4546 22.0343C22.5184 22.0696 22.5895 22.0875 22.6609 22.0875C22.7247 22.0875 22.7888 22.0733 22.8478 22.0442C22.9723 21.9835 23.0582 21.8657 23.0766 21.7301L25.9967 0.467299C26.0017 0.430674 26.0007 0.394048 25.9957 0.358413V0.358083ZM3.62636 6.19405L23.4386 1.35984L8.91331 11.1794L3.62636 6.19405ZM15.0611 17.2292L8.10211 18.415L9.15017 12.0198L24.2656 1.80165L15.0611 17.2292ZM22.3278 21.0171L15.9019 17.4496L24.8859 2.39161L22.3278 21.0171Z" fill="#C6A45A"/>
<path d="M5.63795 20.5878L3.66931 22.7362C3.51397 22.9054 3.52807 23.1661 3.70017 23.3185C3.78035 23.3898 3.88066 23.4248 3.98064 23.4248C4.09538 23.4248 4.20944 23.3789 4.29231 23.2885L6.26095 21.1402C6.41628 20.9709 6.40219 20.7102 6.23008 20.5578C6.05831 20.4057 5.79294 20.4189 5.63795 20.5881V20.5878Z" fill="#C6A45A"/>
<path d="M2.07507 11.2856L0.107767 13.434C-0.0472288 13.6033 -0.0334738 13.8643 0.138967 14.0167C0.219149 14.0876 0.319459 14.1226 0.419435 14.1226C0.534172 14.1226 0.648237 14.0767 0.731438 13.986L2.69874 11.8376C2.85373 11.6684 2.83998 11.4074 2.66754 11.2549C2.4951 11.1028 2.2304 11.116 2.0754 11.2856H2.07507Z" fill="#C6A45A"/>
<path d="M16.6973 22.1647L14.73 24.3114C14.5747 24.4806 14.5888 24.7413 14.7609 24.8938C14.8411 24.965 14.9414 25 15.0413 25C15.1561 25 15.2701 24.9541 15.353 24.8637L17.3203 22.717C17.4756 22.5478 17.4615 22.2871 17.2894 22.1346C17.1177 21.9825 16.8523 21.9957 16.6973 22.165V22.1647Z" fill="#C6A45A"/>
</svg>
