<?xml version="1.0" encoding="UTF-8"?>
<svg id="Layer_2" data-name="Layer 2" xmlns="http://www.w3.org/2000/svg" viewBox="0 0 63 63">
  <defs>
    <style>
      .cls-1 {
        fill: #ffbdd6;
      }

      .cls-1, .cls-2 {
        stroke-width: 0px;
      }

      .cls-2 {
        fill: #313144;
        opacity: 0;
      }
    </style>
  </defs>
  <g id="Layer_1-2" data-name="Layer 1">
    <g>
      <g>
        <path class="cls-1" d="M28.5,31.5h-3.75c-.41,0-.75-.34-.75-.75s.34-.75.75-.75h3.75c.41,0,.75.34.75.75s-.34.75-.75.75Z"/>
        <path class="cls-1" d="M31.5,34.5h-6.75c-.41,0-.75-.34-.75-.75s.34-.75.75-.75h6.75c.41,0,.75.34.75.75s-.34.75-.75.75Z"/>
        <path class="cls-1" d="M31.5,37.5h-6.75c-.41,0-.75-.34-.75-.75s.34-.75.75-.75h6.75c.41,0,.75.34.75.75s-.34.75-.75.75Z"/>
        <path class="cls-1" d="M39.75,43.5h-16.5c-2.07,0-3.75-1.68-3.75-3.75v-12.75c0-2.07,1.68-3.75,3.75-3.75h9c.41,0,.75.34.75.75s-.34.75-.75.75h-9c-1.24,0-2.25,1.01-2.25,2.25v12.75c0,1.24,1.01,2.25,2.25,2.25h16.5c1.24,0,2.25-1.01,2.25-2.25v-12.75c0-1.24-1.01-2.25-2.25-2.25-.41,0-.75-.34-.75-.75s.34-.75.75-.75c2.07,0,3.75,1.68,3.75,3.75v12.75c0,2.07-1.68,3.75-3.75,3.75Z"/>
        <g>
          <path class="cls-1" d="M36.09,37.5c-.41,0-.75-.34-.75-.75v-1.5c0-.41.34-.75.75-.75s.75.34.75.75v1.5c0,.41-.34.75-.75.75Z"/>
          <path class="cls-1" d="M36.5,36h-.75c-.55,0-1-.45-1-1v-.1l-.33-.81-.56-.95c-.07-.12-.1-.25-.1-.38v-11c0-1.24,1.01-2.25,2.25-2.25s2.25,1.01,2.25,2.25v11c0,.1-.02.2-.06.29l-.41,1-.28.84v.13c0,.55-.45,1-1,1ZM35.25,32.55l.48.82s.03.06.05.1l.34.81.26-.77.37-.91v-10.85c0-.41-.34-.75-.75-.75s-.75.34-.75.75v10.8Z"/>
        </g>
      </g>
      <rect class="cls-2" width="63" height="63"/>
    </g>
  </g>
</svg>