<svg xmlns="http://www.w3.org/2000/svg" xmlns:xlink="http://www.w3.org/1999/xlink" version="1.1" id="Layer_1" x="0px" y="0px" width="80" height="80" viewBox="0 0 80 80" style="enable-background:new 0 0 80 80;" xml:space="preserve">
<style type="text/css">
	.st0{clip-path:url(#SVGID_2_);}
	.st1{opacity:0.15;clip-path:url(#SVGID_4_);}
	.st2{clip-path:url(#SVGID_6_);fill:#FFFFFF;}
	.st3{clip-path:url(#SVGID_4_);fill:#0E322A;}
	.st4{clip-path:url(#SVGID_4_);fill:none;stroke:#FFFFFF;stroke-width:2;stroke-miterlimit:10;}
</style>
<g>
	<defs>
		<rect id="SVGID_1_" width="80" height="80"/>
	</defs>
	<clipPath id="SVGID_2_">
		<use xlink:href="#SVGID_1_" style="overflow:visible;"/>
	</clipPath>
	<g class="st0">
		<defs>
			<rect id="SVGID_3_" y="0" width="80" height="80"/>
		</defs>
		<clipPath id="SVGID_4_">
			<use xlink:href="#SVGID_3_" style="overflow:visible;"/>
		</clipPath>
		<g class="st1">
			<g>
				<defs>
					<rect id="SVGID_5_" width="80" height="80"/>
				</defs>
				<clipPath id="SVGID_6_">
					<use xlink:href="#SVGID_5_" style="overflow:visible;"/>
				</clipPath>
				<path class="st2" d="M80,40c0-0.1,0-0.1,0-0.2c0-0.1,0-0.1,0-0.2c0,0,0,0,0,0L68.7,11.9c0,0,0,0,0,0c0,0,0-0.1-0.1-0.1      c0,0,0-0.1-0.1-0.1c0,0,0-0.1-0.1-0.1c0,0,0,0,0,0c0,0,0,0,0,0c0,0-0.1,0-0.1-0.1c0,0-0.1-0.1-0.1-0.1c0,0-0.1,0-0.1,0      c0,0,0,0,0,0L40.4,0.1c0,0,0,0,0,0c-0.1,0-0.1,0-0.2,0c-0.1,0-0.1,0-0.2,0c-0.1,0-0.1,0-0.2,0c-0.1,0-0.1,0-0.2,0c0,0,0,0,0,0      L12.1,11.3c0,0,0,0-0.1,0l-0.1,0c0,0,0,0,0,0c0,0,0,0-0.1,0c0,0,0,0,0,0c0,0-0.1,0.1-0.1,0.1c0,0,0,0-0.1,0.1c0,0,0,0,0,0      c0,0,0,0,0,0c0,0-0.1,0.1-0.1,0.1c0,0,0,0-0.1,0.1c0,0,0,0.1,0,0.1c0,0,0,0,0,0.1L0.1,39.6c0,0,0,0,0,0c0,0.1,0,0.1,0,0.2      c0,0.1,0,0.1,0,0.2c0,0,0,0,0,0c0,0,0,0,0,0c0,0.1,0,0.1,0,0.2c0,0.1,0,0.1,0,0.2c0,0,0,0,0,0l11.3,27.7c0,0,0,0,0,0.1      c0,0,0,0.1,0,0.1c0,0,0,0.1,0.1,0.1c0,0,0,0.1,0.1,0.1c0,0,0,0,0,0c0,0,0,0,0,0c0,0,0.1,0,0.1,0.1c0,0,0.1,0.1,0.1,0.1      c0,0,0,0,0.1,0c0,0,0,0,0,0l0,0l27.7,11.3c0,0,0,0,0,0c0.1,0,0.2,0.1,0.4,0.1c0,0,0,0,0,0c0.2,0,0.3,0,0.4-0.1l27.6-11.2l0,0      c0,0,0,0,0,0c0,0,0,0,0.1,0c0.1,0,0.1-0.1,0.2-0.1c0,0,0.1,0,0.1-0.1c0,0,0,0,0,0c0,0,0,0,0,0c0,0,0-0.1,0.1-0.1c0,0,0,0,0-0.1      c0,0,0-0.1,0.1-0.1c0,0,0,0,0-0.1l11.3-27.7c0,0,0,0,0,0c0-0.1,0-0.1,0-0.2C80,40.1,80,40.1,80,40C80,40,80,40,80,40      C80,40,80,40,80,40 M14.1,14.1l8.8,3.1l-2.9,2.9l-2.9,2.9l-1.1-3.1L14.1,14.1z M15.7,52.5L2.6,40l13-12.6V52.5z M17.8,25.3      l3.8-3.8l3.8-3.8h29.3l3.8,3.8l3.8,3.8l0,29.3l-7.5,7.5H25.3l-7.5-7.5V25.3z M57.1,17.2l8.8-3.1l-3.1,8.8l-2.9-2.9L57.1,17.2z       M64.3,27.4l13,12.6l-13,12.6V27.4z M27.4,15.7L40,2.6l12.6,13H27.4z M16.2,59.9l1-2.8l5.7,5.7l-8.8,3.1L16.2,59.9z M62.8,57.1      l3.1,8.8l-8.8-3.1L62.8,57.1z M64.5,24.6l3.2-9.2L76,35.7L64.5,24.6z M12.3,15.4l3.2,9.2L4,35.7L12.3,15.4z M15.5,55.4l-3.2,9.2      L4,44.3L15.5,55.4z M27.4,64.3l25.1,0L40,77.4l-3-3.1L27.4,64.3z M67.7,64.6l-3.2-9.2L76,44.3L67.7,64.6z M64.6,12.3l-9.2,3.2      l-8.8-9.1L44.3,4L64.6,12.3z M35.7,4l-0.9,0.9L24.6,15.5l-9.2-3.2L35.7,4z M15.4,67.7l9.2-3.2l10.2,10.6l0.9,0.9L15.4,67.7z       M44.3,76l11.1-11.5l0.6,0.2l8.7,3L44.3,76z"/>
			</g>
		</g>
	</g>
</g>
</svg>