<svg 
 xmlns="http://www.w3.org/2000/svg"
 xmlns:xlink="http://www.w3.org/1999/xlink"
 width="67px" height="67px">
<path fill-rule="evenodd"  stroke-width="1px" stroke="rgb(255, 255, 255)" fill-opacity="0" opacity="0.149" fill="rgb(255, 255, 255)"
 d="M33.500,3.500 C50.069,3.500 63.500,16.931 63.500,33.501 C63.500,50.069 50.069,63.500 33.500,63.500 C16.932,63.500 3.500,50.069 3.500,33.501 C3.500,16.931 16.932,3.500 33.500,3.500 Z"/>
<path fill-rule="evenodd"  opacity="0.702" fill="rgb(255, 255, 255)"
 d="M47.541,27.564 C47.093,24.211 45.411,23.643 42.104,23.359 C39.246,23.132 35.995,23.018 33.473,23.018 C30.951,23.018 27.644,23.132 24.841,23.359 C21.534,23.643 19.797,24.211 19.348,27.564 C19.180,29.098 19.068,31.201 19.068,33.360 C19.068,35.520 19.180,37.679 19.348,39.156 C19.797,42.566 21.534,43.077 24.841,43.362 C27.644,43.646 30.951,43.703 33.473,43.703 C35.995,43.703 39.246,43.646 42.104,43.362 C45.411,43.077 47.093,42.566 47.541,39.156 C47.765,37.679 47.877,35.520 47.877,33.360 C47.877,31.201 47.765,29.098 47.541,27.564 ZM30.558,37.792 L30.558,28.985 L38.069,33.360 L30.558,37.792 Z"/>
</svg>