<svg 
 xmlns="http://www.w3.org/2000/svg"
 xmlns:xlink="http://www.w3.org/1999/xlink"
 width="67px" height="67px">
<path fill-rule="evenodd"  stroke-width="1px" stroke="rgb(213, 220, 219)" fill="rgb(255, 255, 255)"
 d="M33.500,3.500 C50.069,3.500 63.500,16.931 63.500,33.501 C63.500,50.068 50.069,63.500 33.500,63.500 C16.931,63.500 3.500,50.068 3.500,33.501 C3.500,16.931 16.931,3.500 33.500,3.500 Z"/>
<path fill-rule="evenodd"  fill="rgb(14, 49, 42)"
 d="M33.320,51.907 C23.309,51.907 15.200,43.794 15.200,33.786 C15.200,23.778 23.309,15.665 33.320,15.665 C43.325,15.665 51.441,23.778 51.441,33.786 C51.441,43.794 43.325,51.907 33.320,51.907 ZM33.320,20.842 C26.170,20.842 20.377,26.637 20.377,33.786 C20.377,36.638 21.310,39.265 22.873,41.405 C22.875,41.451 22.870,41.487 22.876,41.537 C23.098,43.536 21.765,44.426 21.765,44.426 C22.300,45.229 25.307,44.176 25.521,44.099 C27.692,45.743 30.388,46.730 33.320,46.730 C40.467,46.730 46.262,40.934 46.262,33.786 C46.262,26.637 40.467,20.842 33.320,20.842 ZM40.628,37.326 C39.094,37.326 37.847,36.081 37.847,34.545 C37.847,33.013 39.094,31.768 40.628,31.768 C42.163,31.768 43.408,33.013 43.408,34.545 C43.408,36.081 42.163,37.326 40.628,37.326 ZM40.628,32.912 C39.725,32.912 38.993,33.644 38.993,34.545 C38.993,35.450 39.725,36.181 40.628,36.181 C41.531,36.181 42.264,35.450 42.264,34.545 C42.264,33.644 41.531,32.912 40.628,32.912 ZM35.834,36.867 L35.834,30.246 L37.045,30.246 L37.045,37.271 L36.236,37.271 C36.014,37.271 35.834,37.090 35.834,36.867 ZM33.731,36.788 C33.275,37.122 32.710,37.321 32.103,37.321 C30.575,37.321 29.339,36.085 29.339,34.562 C29.339,33.036 30.575,31.800 32.103,31.800 C32.710,31.800 33.275,31.999 33.731,32.333 L33.731,31.954 L34.864,31.954 L34.864,37.271 L34.214,37.271 C33.949,37.271 33.732,37.055 33.731,36.788 ZM32.103,32.938 C31.203,32.938 30.477,33.665 30.477,34.562 C30.477,35.458 31.203,36.185 32.103,36.185 C32.999,36.185 33.726,35.458 33.726,34.562 C33.726,33.665 32.999,32.938 32.103,32.938 ZM28.562,37.271 L23.229,37.271 L23.229,36.966 C23.229,36.592 23.323,36.427 23.439,36.252 L27.313,31.457 L23.391,31.457 L23.391,30.246 L29.047,30.246 L29.047,30.418 C29.047,30.739 29.003,31.002 28.794,31.310 L28.771,31.338 C28.724,31.389 28.617,31.512 28.568,31.577 L24.931,36.139 L29.047,36.139 L29.047,36.785 C29.047,37.053 28.829,37.271 28.562,37.271 Z"/>
</svg>
